<?xml version="1.0" standalone="no"?>
<!DOCTYPE svg PUBLIC "-//W3C//DTD SVG 1.1//EN" "http://www.w3.org/Graphics/SVG/1.1/DTD/svg11.dtd" >
<svg xmlns="http://www.w3.org/2000/svg" xmlns:xlink="http://www.w3.org/1999/xlink" version="1.1">
<metadata></metadata>
<defs>
<font id="absarasans-boldregular" horiz-adv-x="1024" >
<font-face units-per-em="2048" ascent="1638" descent="-410" />
<missing-glyph horiz-adv-x="491" />
<glyph horiz-adv-x="0" />
<glyph horiz-adv-x="682" />
<glyph unicode=" "  horiz-adv-x="491" />
<glyph unicode="&#x09;" horiz-adv-x="491" />
<glyph unicode="&#xa0;" horiz-adv-x="491" />
<glyph unicode="!" horiz-adv-x="512" d="M104 127q0 65 45 109.5t109 44.5t108 -44.5t44 -109.5q0 -63 -43.5 -105t-108.5 -42t-109.5 42t-44.5 105zM106 1397h306l-54 -1024h-200z" />
<glyph unicode="&#x22;" horiz-adv-x="722" d="M68 1475h262l-33 -457h-197zM393 1475h262l-32 -457h-197z" />
<glyph unicode="#" horiz-adv-x="1064" d="M47 356v217h201l59 273h-168v217h215l72 334h162l-72 -334h186l72 334h162l-72 -334h144v-217h-189l-59 -273h155v-217h-202l-76 -356h-164l78 356h-186l-76 -356h-164l78 356h-156zM412 573h184l59 273h-184z" />
<glyph unicode="$" horiz-adv-x="1064" d="M139 215l47 236q62 -43 149.5 -69t170.5 -26q95 0 134.5 25t39.5 72q0 31 -23 56t-61 42.5t-86.5 37t-99 37.5t-99 47t-86.5 63.5t-61 88t-23 119.5q0 109 64 190.5t184 116.5v170h117v-143q50 4 78 4h20v139h117v-147q102 -12 188 -37l-30 -229q-55 21 -135.5 36 t-153.5 15q-168 0 -168 -96q0 -31 29.5 -58t77.5 -48.5t105.5 -44.5t114.5 -52.5t105 -66t77.5 -92t29.5 -122.5q0 -126 -75 -210t-202 -113v-176h-117v155q-20 -2 -61 -2h-37v-153h-117v167q-134 22 -213 68z" />
<glyph unicode="%" horiz-adv-x="1490" d="M61 1077q0 159 88 251.5t232 92.5q143 0 224 -91t81 -253q0 -160 -85.5 -253t-229.5 -93q-145 0 -227.5 90t-82.5 256zM219 0l881 1397h153l-878 -1397h-156zM276 1077q0 -176 97 -176q98 0 98 176q0 86 -22.5 130t-75.5 44q-97 0 -97 -174zM799 326q0 159 87.5 251.5 t231.5 92.5q143 0 224 -91t81 -253q0 -160 -85.5 -253t-229.5 -93q-145 0 -227 89.5t-82 256.5zM1014 326q0 -176 96 -176q98 0 98 176q0 86 -22.5 130t-75.5 44q-96 0 -96 -174z" />
<glyph unicode="&#x26;" horiz-adv-x="1554" d="M70 412q0 152 78 265t247 195q-20 61 -20 146q0 101 35 180t95.5 126.5t136 72t161.5 24.5q72 0 156 -12.5t135 -36.5q-27 -124 -58 -256q-87 51 -196 51q-75 0 -123.5 -40.5t-48.5 -114.5q0 -63 42.5 -133.5t137.5 -167.5l180 -185q86 183 86 377l287 -26 q-3 -327 -168 -560l264 -264l-319 -82l-142 144q-190 -135 -436 -135q-253 0 -391.5 114t-138.5 318zM385 432q0 -101 69.5 -155t176.5 -54q120 0 225 78l-158 162q-142 149 -178 192q-63 -32 -99 -89t-36 -134z" />
<glyph unicode="'" horiz-adv-x="397" d="M68 1475h262l-33 -457h-197z" />
<glyph unicode="(" horiz-adv-x="669" d="M84 451q0 211 40.5 386.5t114 301.5t170.5 211t216 127l98 -187q-168 -94 -257 -307t-89 -532q0 -336 93.5 -544.5t252.5 -295.5l-98 -186q-257 88 -399 361t-142 665z" />
<glyph unicode=")" horiz-adv-x="669" d="M-53 -389q168 94 257 307.5t89 532.5q0 336 -93.5 544t-252.5 295l98 187q257 -88 399 -361t142 -665q0 -211 -40.5 -386.5t-114 -301.5t-170.5 -211t-216 -127z" />
<glyph unicode="*" horiz-adv-x="782" d="M41 1147l65 199l177 -95l41 33l-37 191h209l-37 -191l41 -33l176 95l65 -199l-186 -25l-20 -57l137 -131l-170 -123l-80 168h-62l-81 -168l-168 123l137 131l-21 57z" />
<glyph unicode="+" d="M78 379v223h315v352h240v-352h311v-223h-311v-356h-240v356h-315z" />
<glyph unicode="," horiz-adv-x="512" d="M-53 -356q118 185 158.5 304.5t48.5 225.5l274 -12q-18 -128 -76 -262t-192 -301z" />
<glyph unicode="-" horiz-adv-x="700" d="M86 393v203h528v-203h-528z" />
<glyph unicode="." horiz-adv-x="512" d="M102 127q0 65 45 109.5t109 44.5t108 -44.5t44 -109.5q0 -63 -43.5 -105t-108.5 -42t-109.5 42t-44.5 105z" />
<glyph unicode="/" horiz-adv-x="751" d="M-31 0l543 1448h293l-545 -1448h-291z" />
<glyph unicode="0" horiz-adv-x="1064" d="M61 512q0 247 129.5 387.5t350.5 140.5q220 0 341.5 -138.5t121.5 -389.5q0 -248 -129 -390t-351 -142t-342.5 137t-120.5 395zM360 514q0 -161 37.5 -231t132.5 -70q94 0 134.5 78t40.5 223q0 166 -40 229.5t-133 63.5q-88 0 -130 -70t-42 -223z" />
<glyph unicode="1" horiz-adv-x="1064" d="M180 0v250h289v528l-246 -51l-41 227l355 86h223v-790h231l-22 -250h-789z" />
<glyph unicode="2" horiz-adv-x="1064" d="M57 0v211q222 99 342 172t161.5 127t41.5 117q0 155 -186 155q-132 0 -232 -59l-57 248q70 34 166.5 51.5t183.5 17.5q197 0 313.5 -92t116.5 -270q0 -120 -80 -224.5t-264 -203.5h414l-25 -250h-895z" />
<glyph unicode="3" horiz-adv-x="1064" d="M82 -131q263 8 391.5 58.5t128.5 152.5q0 44 -20 73t-59 44t-82.5 20.5t-104.5 5.5h-115v250h113q258 0 258 164q0 70 -49.5 105.5t-130.5 35.5q-64 0 -133 -14.5t-103 -36.5l-57 242q142 71 346 71q116 0 207.5 -34.5t149 -111.5t57.5 -187q0 -206 -207 -314v-8 q123 -24 188.5 -102.5t65.5 -194.5q0 -139 -102 -250t-288.5 -174t-426.5 -63z" />
<glyph unicode="4" horiz-adv-x="1064" d="M47 264l531 774l307 -20l-549 -776h272v247h271v-247h137v-242h-137v-385h-271v385h-536z" />
<glyph unicode="5" horiz-adv-x="1064" d="M133 -135q266 5 389 53t123 148q0 86 -80.5 124.5t-245.5 38.5q-121 0 -182 -6l84 797h709l-27 -264h-450l-35 -293h18q85 0 160 -13.5t141 -43.5t113 -74.5t74.5 -110.5t27.5 -147q0 -212 -201.5 -342.5t-580.5 -130.5z" />
<glyph unicode="6" horiz-adv-x="1064" d="M74 545q0 174 50 320t133.5 246.5t195 171t233 103.5t248.5 33l55 -264q-105 0 -198 -21t-178.5 -67t-147 -128.5t-88.5 -195.5h12q36 39 96.5 61.5t124.5 22.5q75 0 142.5 -23.5t122 -69.5t86.5 -123t32 -175q0 -208 -129 -332t-340 -124q-209 0 -329.5 145.5 t-120.5 419.5zM354 418q0 -96 45 -148.5t125 -52.5q84 0 132.5 49t48.5 152q0 96 -51 140t-128 44q-75 0 -123.5 -46.5t-48.5 -137.5z" />
<glyph unicode="7" horiz-adv-x="1064" d="M53 -354l615 1114h-570l-35 260h906v-258l-637 -1145z" />
<glyph unicode="8" horiz-adv-x="1064" d="M74 350q0 120 57.5 205t183.5 156q-114 73 -161.5 157.5t-47.5 190.5q0 158 118.5 258t314.5 100q206 0 311.5 -88.5t105.5 -234.5q0 -222 -215 -344q150 -90 201 -171t51 -198q0 -177 -137 -289t-340 -112q-214 0 -328 104t-114 266zM340 391q0 -88 46 -135t132 -47 t137.5 43t51.5 117q0 145 -244 249q-49 -31 -86 -95t-37 -132zM373 1063q0 -64 56.5 -120.5t156.5 -100.5q53 28 90 90.5t37 126.5q0 69 -46.5 109t-121.5 40q-76 0 -124 -39.5t-48 -105.5z" />
<glyph unicode="9" horiz-adv-x="1064" d="M72 584q0 208 129 332t340 124q209 0 329.5 -145.5t120.5 -419.5q0 -174 -50 -320t-133.5 -246.5t-195 -171t-233 -103.5t-248.5 -33l-55 264q83 0 158.5 12.5t149.5 42.5t133 76t104 117.5t67 162.5h-12q-36 -39 -96.5 -61t-124.5 -22q-75 0 -142.5 23.5t-122 69.5 t-86.5 123t-32 175zM360 602q0 -96 51 -140t128 -44q75 0 123.5 46.5t48.5 137.5q0 96 -45 148.5t-125 52.5q-84 0 -132.5 -49t-48.5 -152z" />
<glyph unicode=":" horiz-adv-x="512" d="M104 127q0 65 44 109.5t108 44.5t109 -44.5t45 -109.5q0 -63 -44.5 -105t-109.5 -42t-108.5 42t-43.5 105zM104 750q0 65 44 109t108 44q65 0 109.5 -44.5t44.5 -108.5t-44.5 -106t-109.5 -42t-108.5 42t-43.5 106z" />
<glyph unicode=";" horiz-adv-x="512" d="M-51 -356q118 185 158.5 304.5t48.5 225.5l274 -12q-18 -128 -76 -262t-192 -301zM104 750q0 64 44.5 108.5t109.5 44.5q64 0 108 -44t44 -109q0 -63 -43.5 -105.5t-108.5 -42.5t-109.5 42.5t-44.5 105.5z" />
<glyph unicode="&#x3c;" d="M53 483l537 443h352l-543 -432l543 -463h-354z" />
<glyph unicode="=" d="M86 197v219h856v-219h-856zM86 586v217h856v-217h-856z" />
<glyph unicode="&#x3e;" d="M78 31l543 432l-543 463h354l535 -453l-537 -442h-352z" />
<glyph unicode="?" horiz-adv-x="808" d="M61 1372q118 49 289 49q84 0 157 -24t129.5 -69.5t89 -118.5t32.5 -165q0 -167 -105 -283.5t-286 -170.5l10 -217h-201l-94 364q212 32 309.5 96t97.5 173q0 83 -52.5 126.5t-135.5 43.5q-124 0 -197 -48zM123 127q0 65 43.5 109.5t107.5 44.5t109 -44.5t45 -109.5 q0 -63 -44.5 -105t-109.5 -42t-108 42t-43 105z" />
<glyph unicode="@" horiz-adv-x="1746" d="M88 430q0 183 63 335t172 253t256.5 157t315.5 56q166 0 306 -48t240.5 -136.5t157 -221t56.5 -295.5q0 -117 -32.5 -213t-87.5 -157t-126.5 -94t-151.5 -33q-183 0 -256 104q-80 -53 -142 -77.5t-128 -24.5q-100 0 -160.5 63.5t-60.5 159.5q0 71 31 130t84 93l333 25v47 q0 59 -31 81.5t-98 22.5q-98 0 -200 -61l-72 190q170 95 348 95q307 0 307 -277q0 -9 -3 -150t-3 -151q0 -100 90 -100q71 0 120.5 90.5t49.5 230.5q0 260 -155.5 394.5t-419.5 134.5q-279 0 -445.5 -169t-166.5 -448q0 -264 149 -410.5t389 -146.5q158 0 246 35l22 -184 q-126 -35 -274 -35q-151 0 -282.5 49.5t-229.5 141.5t-154.5 232t-56.5 312zM776 305q0 -86 78 -86q38 0 100 25l2 123l-172 -17q-8 -24 -8 -45z" />
<glyph unicode="A" horiz-adv-x="1447" d="M39 0l526 1397h309l533 -1387l-332 -20l-123 348h-489l-123 -338h-301zM545 584h313l-119 336q-21 66 -28 133h-17q-9 -89 -26 -133z" />
<glyph unicode="B" horiz-adv-x="1253" d="M168 0v1397h147q220 10 316 10q207 0 323.5 -91t116.5 -265q0 -99 -53.5 -184t-151.5 -126v-14q138 -31 215.5 -121t77.5 -223q0 -172 -128 -282.5t-351 -110.5l-352 10h-160zM465 236q41 -5 143 -5q106 0 168 42t62 130q0 191 -271 191h-102v-358zM465 815h82 q117 0 170 46.5t53 146.5q0 90 -55.5 132t-153.5 42q-60 0 -96 -4v-363z" />
<glyph unicode="C" horiz-adv-x="1409" d="M92 674q0 148 41.5 272t112 210.5t166 147t203 89t223.5 28.5q129 0 259.5 -24t217.5 -74l-92 -289q-72 46 -172.5 72.5t-196.5 26.5q-70 0 -129 -14t-112 -47.5t-90.5 -84.5t-59 -130t-21.5 -179q0 -109 34 -190.5t94 -128t135 -69t165 -22.5q97 0 199 29t180 78 l66 -297q-88 -44 -216 -71t-251 -27q-154 0 -290 46t-240 131.5t-165 219t-61 297.5z" />
<glyph unicode="D" horiz-adv-x="1544" d="M168 0v1397h123q284 14 397 14q166 0 305 -44.5t241.5 -129.5t160 -216t57.5 -296q0 -182 -56 -324t-156 -232t-232.5 -136.5t-290.5 -46.5q-49 0 -151 3.5t-180 6.5l-77 4h-141zM477 260q117 -10 203 -10q193 0 308.5 119.5t115.5 332.5q0 120 -35 208t-97.5 138.5 t-140 74.5t-172.5 24q-39 0 -182 -10v-877z" />
<glyph unicode="E" horiz-adv-x="1189" d="M168 0v1397h864l-22 -273h-533v-288h494v-267h-494v-297h606l-20 -272h-895z" />
<glyph unicode="F" horiz-adv-x="1153" d="M168 0v1397h872l-24 -271h-539v-374h502v-269h-502v-483h-309z" />
<glyph unicode="G" horiz-adv-x="1519" d="M92 682q0 148 41.5 272t112.5 209t166.5 144t203 86.5t222.5 27.5q304 0 518 -106l-80 -293q-89 53 -201 82t-219 29q-90 0 -162 -23t-130 -73t-90 -139t-32 -212q0 -113 32.5 -195.5t91.5 -130t134.5 -70t169.5 -22.5q44 0 105 8.5t90 18.5v330h315v-562 q-87 -35 -237 -59t-291 -24q-165 0 -304.5 47t-240.5 135t-158 221.5t-57 298.5z" />
<glyph unicode="H" horiz-adv-x="1587" d="M168 0v1397h315v-541h621v541h315v-1397h-315v584h-621v-584h-315z" />
<glyph unicode="I" horiz-adv-x="651" d="M168 0v1397h315v-1397h-315z" />
<glyph unicode="J" horiz-adv-x="688" d="M-74 -127q148 15 213.5 75t65.5 175v1274h315v-1307q0 -113 -41 -205t-114.5 -153t-170.5 -97t-212 -45z" />
<glyph unicode="K" horiz-adv-x="1413" d="M168 0v1397h309v-613l512 627l361 -14l-500 -559l539 -838l-357 -20l-397 618l-158 -176v-422h-309z" />
<glyph unicode="L" horiz-adv-x="1140" d="M168 0v1397h315v-1123h600l-22 -274h-893z" />
<glyph unicode="M" horiz-adv-x="1929" d="M113 0l112 1397h328l365 -930q22 -57 26 -111h19q9 63 28 111l389 930h328l109 -1389l-306 -16l-55 805q-2 23 -2 104h-14q-13 -90 -29 -129l-330 -772h-295l-299 772q-18 50 -28 129h-15q0 -81 -2 -104l-59 -797h-270z" />
<glyph unicode="N" horiz-adv-x="1564" d="M168 0v1397h334l532 -725q47 -62 66 -113h14q-4 50 -4 107v731h287v-1393l-242 -29l-625 881q-47 65 -65 115h-14q4 -50 4 -107v-864h-287z" />
<glyph unicode="O" horiz-adv-x="1652" d="M92 670q0 178 58 321.5t160 236.5t238.5 143t295.5 50q146 0 275.5 -47.5t228 -134.5t156 -220t57.5 -294q0 -180 -60.5 -324t-165 -234.5t-240.5 -138.5t-292 -48q-137 0 -264 46.5t-227 131.5t-160 218t-60 294zM442 698q0 -229 102 -340.5t279 -111.5t282 121t105 338 q0 118 -30 206.5t-83.5 140.5t-120.5 77.5t-147 25.5t-147 -24.5t-122 -76.5t-86.5 -143t-31.5 -213z" />
<glyph unicode="P" horiz-adv-x="1226" d="M168 0v1397h166q238 12 334 12q228 0 352.5 -112.5t124.5 -315.5q0 -122 -44 -217t-116.5 -151t-158.5 -84.5t-179 -28.5q-53 0 -98 4l-25 237q20 -4 70 -4q104 0 173 54t69 167q0 101 -60 155t-168 54q-49 0 -131 -4v-1163h-309z" />
<glyph unicode="Q" horiz-adv-x="1652" d="M90 670q0 177 58 320.5t160 237t239 143.5t297 50q145 0 274.5 -48t227.5 -135t155.5 -220t57.5 -293q0 -244 -111 -413.5t-287 -250.5v-8l449 -280l-277 -164l-571 379h-2q-128 5 -246 52t-213.5 130.5t-153 213t-57.5 286.5zM442 698q0 -228 101.5 -341t277.5 -113 q177 0 282 122t105 339q0 118 -29.5 206.5t-82.5 140.5t-120 77.5t-147 25.5q-173 0 -280 -112t-107 -345z" />
<glyph unicode="R" horiz-adv-x="1327" d="M168 0v1397h186q275 12 336 12q212 0 339.5 -104t127.5 -297q0 -126 -65 -223.5t-177 -143.5v-14l431 -625l-349 -25l-360 553h-164v-530h-305zM473 762h141q102 0 164 57t62 150q0 99 -59 148.5t-169 49.5q-41 0 -139 -4v-401z" />
<glyph unicode="S" horiz-adv-x="1105" d="M74 80l67 264q156 -102 342 -102q211 0 211 141q0 44 -33 81.5t-85.5 66.5t-116 58.5t-127 66.5t-116 82t-85.5 113.5t-33 152.5q0 189 136.5 303t359.5 114t369 -41l-48 -272q-72 21 -163 36t-136 15q-208 0 -208 -135q0 -37 34 -69.5t88 -60.5t119.5 -58.5t131 -70 t119.5 -87.5t88 -119.5t34 -157.5q0 -128 -69.5 -224.5t-185.5 -146.5t-259 -50q-130 0 -245 25.5t-189 74.5z" />
<glyph unicode="T" horiz-adv-x="1204" d="M31 1397h1143l-17 -273h-397v-1124h-316v1124h-399z" />
<glyph unicode="U" horiz-adv-x="1492" d="M166 483v914h315v-844q0 -77 10.5 -127t39.5 -90t84.5 -58t142.5 -18q154 0 219 72t65 227v838h285v-914q0 -107 -37 -198t-107.5 -159.5t-180 -107t-246.5 -38.5q-300 0 -445 124.5t-145 378.5z" />
<glyph unicode="V" horiz-adv-x="1402" d="M29 1389l344 20l311 -946q21 -61 27 -123h20q7 70 25 123l311 934h309l-489 -1397h-363z" />
<glyph unicode="W" horiz-adv-x="2211" d="M61 1389l324 20l238 -885q9 -36 16 -96h18q2 32 19 94l276 875h326l297 -873q14 -46 20 -96h21q3 51 12 94l213 875h311l-385 -1397h-329l-308 926q-18 55 -20 100h-20q-9 -61 -21 -100l-293 -926h-327z" />
<glyph unicode="X" horiz-adv-x="1495" d="M39 0l534 719l-491 657l379 37l313 -465l297 449h363l-492 -666l506 -702l-373 -43l-334 510l-342 -496h-360z" />
<glyph unicode="Y" horiz-adv-x="1347" d="M33 1380l364 27l262 -504q28 -55 37 -98h21q10 48 37 98l256 494h315l-473 -871v-526h-315v526z" />
<glyph unicode="Z" horiz-adv-x="1406" d="M109 258l772 866h-691l-10 273h1071l31 -240l-788 -885h753l21 -272h-1135z" />
<glyph unicode="[" horiz-adv-x="743" d="M164 -526v1964h510v-236h-207v-1493h207v-235h-510z" />
<glyph unicode="\" horiz-adv-x="751" d="M-33 1448h293l543 -1448h-291z" />
<glyph unicode="]" horiz-adv-x="743" d="M70 -291h206v1493h-206v236h510v-1964h-510v235z" />
<glyph unicode="^" d="M106 555l277 610h219l285 -610l-197 -12l-198 409l-193 -409z" />
<glyph unicode="_" d="M0 0h1024v-203h-1024v203z" />
<glyph unicode="`" d="M190 1421h308l135 -403h-201z" />
<glyph unicode="a" horiz-adv-x="960" d="M68 227q0 79 33.5 145t93.5 107l356 35v45q0 67 -33.5 94t-103.5 27q-101 0 -217 -72l-76 211q183 107 379 107q165 0 247 -69.5t82 -235.5q0 -9 -3 -176.5t-3 -180.5q0 -64 11 -100l38 -127l-276 -57l-27 86q-75 -45 -130.5 -65.5t-125.5 -20.5q-114 0 -179.5 69 t-65.5 178zM360 276q0 -90 84 -90q40 0 103 29l2 143l-180 -24q-9 -27 -9 -58z" />
<glyph unicode="b" horiz-adv-x="1107" d="M137 74v1364l291 24v-647q98 111 250 111q164 0 263 -114t99 -320q0 -121 -40.5 -219.5t-110.5 -161.5t-162.5 -97t-198.5 -34q-103 0 -213.5 25.5t-177.5 68.5zM428 246q48 -21 104 -21q82 0 137.5 60t55.5 188q0 109 -50 164t-128 55q-71 0 -119 -28v-418z" />
<glyph unicode="c" horiz-adv-x="917" d="M68 449q0 94 26.5 173t72 134.5t106.5 94t130.5 57t143.5 18.5q184 0 291 -43l-58 -246q-87 41 -174 41q-104 0 -161.5 -60.5t-57.5 -173.5q0 -206 205 -206q128 0 209 75l84 -229h2q-142 -104 -334 -104q-214 0 -349.5 126t-135.5 343z" />
<glyph unicode="d" horiz-adv-x="1107" d="M68 418q0 121 40.5 220t107.5 160.5t150 94.5t171 33q76 0 141 -21v533l291 24v-1229q0 -111 16 -233l-268 -10l-6 100q-70 -57 -132.5 -83.5t-136.5 -26.5t-140 26t-119 78t-84 138t-31 196zM383 446q0 -231 170 -231q68 0 125 31v426q-44 22 -96 22q-199 0 -199 -248z " />
<glyph unicode="e" horiz-adv-x="991" d="M68 442q0 116 39 210.5t104 153t145 89.5t166 31q189 0 288 -104t99 -271q0 -95 -8 -139h-520q-2 -10 -2 -17q0 -89 58.5 -133.5t158.5 -44.5q130 0 246 90l84 -190q-143 -137 -387 -137q-91 0 -174.5 29.5t-150 85t-106.5 145.5t-40 202zM385 573h250v39q0 57 -31 92 t-88 35q-61 0 -95 -43t-36 -123z" />
<glyph unicode="f" horiz-adv-x="737" d="M41 668v235h147v107q0 206 116.5 335.5t281.5 129.5q65 0 141 -11l-18 -278q-41 6 -78 6q-74 0 -113 -32t-39 -116v-141h219v-235h-219v-668h-291v668h-147z" />
<glyph unicode="g" horiz-adv-x="1042" d="M23 -227q0 70 37 125.5t116 81.5q-127 48 -127 188q0 141 174 229q-80 77 -80 201q0 158 103.5 243t269.5 85q93 0 160 -23h307v-192h-123v-9q31 -45 31 -112q0 -154 -96.5 -239t-278.5 -85q-86 0 -164 33q-44 -14 -60 -30.5t-16 -39.5q0 -26 28 -40t99 -21l496 -55 q34 -39 58 -108.5t24 -133.5q0 -177 -134 -297.5t-362 -120.5q-222 0 -342 84t-120 236zM262 -174q0 -73 60.5 -105t191.5 -32q86 0 140.5 37t54.5 104q0 11 -7 39l-401 43q-17 -12 -28 -36t-11 -50zM403 598q0 -145 113 -145q59 0 87 35t28 110q0 150 -115 150 q-59 0 -86 -37t-27 -113z" />
<glyph unicode="h" horiz-adv-x="1128" d="M137 0v1438l291 24v-643q48 55 113 81t131 26q147 0 235 -83t88 -263v-580h-290v528q0 164 -148 164q-66 0 -129 -37v-655h-291z" />
<glyph unicode="i" horiz-adv-x="565" d="M137 0v893l291 25v-918h-291zM156 1241q0 54 36.5 90.5t90.5 36.5t91.5 -36.5t37.5 -90.5t-37.5 -92.5t-91.5 -38.5t-90.5 38.5t-36.5 92.5z" />
<glyph unicode="j" horiz-adv-x="550" d="M-86 -356q110 35 159.5 96t49.5 172v981l291 25v-1014q0 -116 -42 -210.5t-133.5 -160t-222.5 -82.5zM141 1241q0 54 36.5 90.5t90.5 36.5t91.5 -36.5t37.5 -90.5t-37.5 -92.5t-91.5 -38.5t-90.5 38.5t-36.5 92.5z" />
<glyph unicode="k" horiz-adv-x="1122" d="M137 0v1438l291 24v-889l348 353l303 -45l-366 -330q89 -104 193.5 -246.5t183.5 -267.5l-312 -57q-142 233 -272 387l-78 -70v-297h-291z" />
<glyph unicode="l" horiz-adv-x="565" d="M137 0v1438l291 24v-1462h-291z" />
<glyph unicode="m" horiz-adv-x="1638" d="M137 0v893l287 25v-97q112 105 235 105q191 0 263 -138q133 138 276 138q149 0 228 -81.5t79 -264.5v-580h-291v528q0 91 -32 127.5t-90 36.5q-69 0 -125 -37v-655h-291v528q0 91 -32.5 127.5t-90.5 36.5q-61 0 -125 -37v-655h-291z" />
<glyph unicode="n" horiz-adv-x="1122" d="M137 0v893l287 25v-97q112 105 240 105q152 0 238.5 -82.5t86.5 -263.5v-580h-291v528q0 89 -40 126.5t-101 37.5q-65 0 -129 -37v-655h-291z" />
<glyph unicode="o" horiz-adv-x="1107" d="M68 430q0 225 139.5 360.5t361.5 135.5q208 0 339.5 -123t131.5 -332q0 -227 -142.5 -359t-362.5 -132q-201 0 -334 122.5t-133 327.5zM387 457q0 -118 45 -179t119 -61q83 0 126.5 60.5t43.5 179.5q0 121 -46 179t-120 58q-168 0 -168 -237z" />
<glyph unicode="p" horiz-adv-x="1107" d="M137 -526v1419l287 25v-113q93 121 254 121q173 0 267.5 -118t94.5 -327q0 -118 -39.5 -215.5t-104 -158.5t-142.5 -94t-160 -33q-113 0 -166 20v-526h-291zM428 236q39 -27 107 -27q91 0 140.5 55.5t49.5 200.5q0 237 -184 237q-63 0 -113 -40v-426z" />
<glyph unicode="q" horiz-adv-x="1105" d="M68 414q0 241 139.5 376.5t370.5 135.5q204 0 391 -58v-1394h-291v581q-120 -75 -244 -75q-160 0 -263 115.5t-103 318.5zM383 446q0 -231 168 -231q75 0 127 31v420q-37 28 -98 28q-197 0 -197 -248z" />
<glyph unicode="r" horiz-adv-x="784" d="M137 0v893l285 25v-140q109 148 254 148q42 0 76 -11l-21 -303q-63 17 -106 17q-124 0 -199 -78v-551h-289z" />
<glyph unicode="s" horiz-adv-x="839" d="M82 31l55 221q113 -53 252 -53q48 0 67 14.5t19 46.5q0 23 -21.5 40t-56 29.5t-76 26.5t-82.5 35.5t-75.5 51t-56 79.5t-21.5 115q0 127 112.5 208t280.5 81q133 0 246 -25l-45 -235q-105 39 -213 39q-96 0 -96 -50q0 -25 29.5 -44.5t73 -32t95 -35t95 -50.5t73 -81.5 t29.5 -124.5q0 -133 -103 -220t-284 -87q-205 0 -297 51z" />
<glyph unicode="t" horiz-adv-x="765" d="M41 668v235h137v201l291 35v-236h223v-235h-223v-308q0 -73 26 -104t85 -31q43 0 104 21l37 -219q-92 -47 -238 -47q-305 0 -305 313v375h-137z" />
<glyph unicode="u" horiz-adv-x="1128" d="M133 317v576l291 25v-562q0 -69 33 -97t92 -28q78 0 147 60v602l291 25v-693q0 -91 23 -223l-293 -20l-10 96q-74 -51 -137 -74.5t-132 -23.5q-146 0 -225.5 78t-79.5 259z" />
<glyph unicode="v" horiz-adv-x="954" d="M-2 891l315 22l154 -479q13 -38 18 -100h19q3 37 22 100l148 469h291l-340 -903h-301z" />
<glyph unicode="w" horiz-adv-x="1550" d="M33 893l295 20l121 -475q13 -52 16 -88h22q3 21 25 88l150 465h262l159 -465q17 -50 25 -88h22q2 31 17 88l108 465h267l-277 -903h-282l-152 496q-18 64 -20 94h-25q-3 -38 -21 -94l-165 -496h-283z" />
<glyph unicode="x" horiz-adv-x="1003" d="M-4 0l319 453l-290 440l346 22l153 -270l148 258h309l-303 -418l330 -473l-351 -24l-184 299l-168 -287h-309z" />
<glyph unicode="y" horiz-adv-x="993" d="M-31 -297q136 22 231 90.5t150 206.5h-55l-266 893l315 20l127 -528q13 -60 16 -94h19q7 46 24 94l183 518h291l-308 -788q-117 -300 -260.5 -457t-320.5 -207z" />
<glyph unicode="z" horiz-adv-x="964" d="M55 209l475 455h-415l-19 239h758l25 -213l-471 -450h450l21 -240h-801z" />
<glyph unicode="{" horiz-adv-x="700" d="M61 326v247q108 0 158.5 17.5t50.5 66.5q0 33 -27.5 94.5t-60.5 120.5t-60.5 132t-27.5 126q0 165 106 238.5t306 73.5q74 0 139 -8v-217q-41 2 -92 2q-150 0 -150 -121q0 -37 27 -93.5t59 -107t59 -115t27 -116.5q0 -44 -11 -75.5t-40.5 -59.5t-86.5 -46t-144 -26v-19 q87 -9 144 -26.5t86.5 -45.5t40.5 -59.5t11 -77.5q0 -47 -27 -111.5t-59 -117t-59 -109.5t-27 -92q0 -120 150 -120q49 0 92 2v-218q-78 -8 -139 -8q-212 0 -312 77.5t-100 234.5q0 51 27.5 123t60.5 132.5t60.5 123t27.5 96.5q0 48 -51 65t-158 17z" />
<glyph unicode="|" horiz-adv-x="661" d="M190 -526v1974h283v-1974h-283z" />
<glyph unicode="}" horiz-adv-x="700" d="M55 -317q41 -2 92 -2q150 0 150 120q0 37 -27 93.5t-59 107t-59 115t-27 116.5q0 44 11 75.5t40.5 59.5t87 46t144.5 26v19q-87 9 -144 26.5t-87 45.5t-41 59.5t-11 77.5q0 47 27 111.5t59 117t59 109.5t27 92q0 121 -150 121q-49 0 -92 -2v217q78 8 140 8 q211 0 311 -77.5t100 -234.5q0 -50 -27.5 -122.5t-60.5 -133t-60.5 -123.5t-27.5 -96q0 -48 51 -65t158 -17v-247q-107 0 -158 -17.5t-51 -66.5q0 -33 27.5 -94.5t60.5 -120.5t60.5 -132t27.5 -126q0 -165 -105.5 -238.5t-305.5 -73.5q-75 0 -140 8v218z" />
<glyph unicode="~" d="M96 334q29 128 85.5 200t137.5 72q66 0 189.5 -51t169.5 -51q39 0 60.5 27.5t39.5 93.5l146 -33q-17 -130 -77.5 -205.5t-144.5 -75.5q-54 0 -127.5 25t-139 50.5t-101.5 25.5q-38 0 -60 -24t-47 -93z" />
<glyph unicode="&#xa1;" horiz-adv-x="512" d="M117 -492l53 1024h201l51 -1024h-305zM119 778q0 63 43.5 105.5t107.5 42.5q65 0 109.5 -42.5t44.5 -105.5q0 -64 -44.5 -108.5t-109.5 -44.5q-64 0 -107.5 44t-43.5 109z" />
<glyph unicode="&#xa2;" horiz-adv-x="1064" d="M104 694q0 123 34.5 219.5t95 157.5t133.5 96.5t159 49.5v204h187v-207q122 -11 215 -49l-33 -243q-118 47 -268 47q-240 0 -240 -267q0 -121 67.5 -180t180.5 -59q56 0 134 17.5t128 41.5l33 -262q-87 -34 -217 -51v-229h-187v227q-88 11 -163 46t-133.5 93.5t-92 147.5 t-33.5 200z" />
<glyph unicode="&#xa3;" horiz-adv-x="1064" d="M111 0v223q46 0 84.5 8.5t72.5 27.5t53 55t19 87q0 63 -59 199h-160v203h67q-63 140 -63 237q0 170 115 275.5t313 105.5q231 0 354 -59l-53 -240q-53 23 -132.5 40.5t-146.5 17.5q-167 0 -167 -152q0 -60 79 -225h416v-203h-328q29 -96 29 -149q0 -74 -25.5 -122.5 t-80.5 -99.5h463v-229h-850z" />
<glyph unicode="&#xa4;" horiz-adv-x="1064" d="M70 131l104 109q-70 106 -70 239q0 137 68 240l-98 104l143 129l94 -104q103 61 221 61q117 0 222 -59l100 113l143 -132l-106 -108q70 -107 70 -234q0 -133 -78 -249l108 -109l-143 -131l-103 115q-104 -58 -213 -58q-118 0 -217 58l-104 -115zM338 485q0 -95 54 -155 t134 -60q81 0 141 60.5t60 154.5q0 93 -56 152t-136 59q-77 0 -137 -59.5t-60 -151.5z" />
<glyph unicode="&#xa5;" horiz-adv-x="1064" d="M10 1378l326 29l168 -463q24 -67 31 -102h22q9 43 31 102l180 453h295l-338 -762h201v-236h-240v-399h-305v399h-240v236h201z" />
<glyph unicode="&#xa6;" horiz-adv-x="661" d="M190 303h283v-829h-283v829zM190 618v830h283v-830h-283z" />
<glyph unicode="&#xa7;" horiz-adv-x="1064" d="M76 666q0 96 53.5 174.5t155.5 132.5q-43 56 -43 129q0 150 121.5 234.5t310.5 84.5q110 0 188 -18l-39 -213q-93 22 -213 22q-114 0 -114 -67q0 -22 27.5 -42t71 -37.5t96 -37.5t105.5 -46.5t96.5 -59t71 -81t27.5 -106.5q0 -196 -211 -309q45 -58 45 -127 q0 -150 -121.5 -234.5t-310.5 -84.5q-110 0 -188 18l39 213q98 -23 213 -23q114 0 114 68q0 22 -27.5 42t-71 37.5t-96 37.5t-105.5 46.5t-96.5 59t-71 81t-27.5 106.5zM346 723q0 -20 11.5 -38.5t28 -32t46 -29t53 -25.5t63 -26.5t62.5 -26.5q111 47 111 133q0 24 -13.5 44 t-44.5 38.5t-56.5 30.5t-75 32t-74.5 31q-111 -43 -111 -131z" />
<glyph unicode="&#xa8;" d="M197 1241q0 54 36.5 90.5t90.5 36.5t90.5 -36.5t36.5 -90.5t-36.5 -92.5t-90.5 -38.5t-90.5 38.5t-36.5 92.5zM575 1241q0 54 36.5 90.5t90.5 36.5t90.5 -36.5t36.5 -90.5t-36.5 -92.5t-90.5 -38.5t-90.5 38.5t-36.5 92.5z" />
<glyph unicode="&#xa9;" horiz-adv-x="1554" d="M113 700q0 184 88 336.5t240.5 240t336.5 87.5q138 0 261 -51.5t211.5 -140t140 -211.5t51.5 -261q0 -184 -87.5 -336t-240 -239.5t-336.5 -87.5t-336.5 87.5t-240.5 239.5t-88 336zM225 700q0 -154 72.5 -282.5t199.5 -202.5t281 -74t280.5 74t198.5 202.5t72 282.5 t-72 282t-198.5 201.5t-280.5 73.5q-234 0 -393.5 -161t-159.5 -396zM414 694q0 99 33.5 177.5t90 126.5t128 73t151.5 25q152 0 248 -52l-43 -182q-88 51 -203 51q-194 0 -194 -213q0 -194 204 -194q111 0 207 55l35 -188q-104 -49 -246 -49q-181 0 -296 96.5t-115 273.5z " />
<glyph unicode="&#xaa;" horiz-adv-x="788" d="M123 1026q0 92 80 143l239 17v18q0 62 -88 62q-83 0 -145 -41l-39 143q115 53 236 53q221 0 221 -188q0 -6 -2 -98.5t-2 -98.5q0 -41 6 -57l24 -84l-182 -33l-16 49q-77 -49 -166 -49q-76 0 -121 46.5t-45 117.5zM309 1036q0 -25 15.5 -40t46.5 -15q35 0 69 18l2 93 l-120 -11q-13 -23 -13 -45z" />
<glyph unicode="&#xab;" horiz-adv-x="983" d="M41 428v74l328 377l206 -50l-280 -358l280 -416l-206 -49zM424 428v74l328 377l206 -50l-280 -358l280 -416l-206 -49z" />
<glyph unicode="&#xac;" d="M55 506v242h906v-523h-246v281h-660z" />
<glyph unicode="&#xad;" horiz-adv-x="700" d="M86 393v203h528v-203h-528z" />
<glyph unicode="&#xae;" horiz-adv-x="1554" d="M113 700q0 184 88 336.5t240.5 240t336.5 87.5q138 0 261 -51.5t211.5 -140t140 -211.5t51.5 -261q0 -184 -87.5 -336t-240 -239.5t-336.5 -87.5t-336.5 87.5t-240.5 239.5t-88 336zM225 700q0 -154 72.5 -282.5t199.5 -202.5t281 -74t280.5 74t198.5 202.5t72 282.5 t-72 282t-198.5 201.5t-280.5 73.5q-234 0 -393.5 -161t-159.5 -396zM506 334v751h112q162 7 199 7q121 0 192.5 -55.5t71.5 -159.5q0 -70 -37.5 -127t-99.5 -82v-9l219 -292l-192 -45l-189 276h-94v-264h-182zM688 743h74q61 0 94 27.5t33 75.5q0 98 -131 98q-41 0 -70 -2 v-199z" />
<glyph unicode="&#xaf;" d="M242 1130v191h536v-191h-536z" />
<glyph unicode="&#xb0;" horiz-adv-x="663" d="M47 1161q0 126 83.5 203.5t211.5 77.5q118 0 196 -72t78 -188q0 -128 -85.5 -203.5t-211.5 -75.5q-112 0 -192 72t-80 186zM219 1178q0 -57 31.5 -89t79.5 -32q54 0 82 31.5t28 87.5q0 59 -29.5 89.5t-76.5 30.5q-50 0 -82.5 -29.5t-32.5 -88.5z" />
<glyph unicode="&#xb1;" d="M131 0v221h764v-221h-764zM131 506v217h264v242h232v-242h268v-217h-268v-244h-232v244h-264z" />
<glyph unicode="&#xb2;" horiz-adv-x="880" d="M98 524v176q233 154 319.5 241t86.5 175q0 54 -36.5 86.5t-102.5 32.5q-103 0 -205 -45l-33 180q109 53 279 53q148 0 237.5 -72t89.5 -200q0 -55 -13.5 -102.5t-48 -101.5t-100 -111.5t-163.5 -118.5h360l-18 -193h-652z" />
<glyph unicode="&#xb3;" horiz-adv-x="880" d="M139 1380q48 20 126 30.5t145 10.5q142 0 221.5 -54t79.5 -155q0 -149 -158 -204v-11q98 -11 151.5 -60.5t53.5 -135.5q0 -140 -148 -215.5t-450 -75.5l-19 190q192 0 280.5 23t88.5 80q0 49 -34.5 62.5t-129.5 13.5h-133v188h109q89 0 129.5 17t40.5 67q0 47 -29.5 65.5 t-83.5 18.5q-46 0 -108 -11.5t-97 -29.5z" />
<glyph unicode="&#xb4;" d="M391 1018l135 403h308l-242 -403h-201z" />
<glyph unicode="&#xb5;" horiz-adv-x="1105" d="M123 -526v1419l291 25v-562q0 -69 33 -97t92 -28q86 0 155 60v602l291 25v-723q0 -79 21 -195l-291 -20l-10 98q-64 -51 -115.5 -70.5t-114.5 -19.5q-31 0 -63 4v-518h-289z" />
<glyph unicode="&#xb6;" horiz-adv-x="1064" d="M51 901q0 105 27 192.5t72.5 147.5t107 101t130 60t142.5 19q197 0 398 -61v-1360h-154v1171l-63 11v-1182h-154v1194h-18q-193 0 -193 -268q0 -207 137 -207q21 0 37 4l8 -209q-55 -22 -137 -22q-66 0 -125.5 25t-108 73t-77.5 128.5t-29 182.5z" />
<glyph unicode="&#xb7;" horiz-adv-x="466" d="M86 496q0 60 43.5 103.5t103.5 43.5t104 -43.5t44 -103.5t-44 -102t-104 -42t-103.5 42t-43.5 102z" />
<glyph unicode="&#xb8;" d="M311 -426l35 137q46 -22 96 -22q35 0 57.5 16.5t22.5 46.5q0 37 -29.5 58t-74.5 24l22 109q111 0 189 -52t78 -151q0 -50 -23 -90t-59.5 -63t-77 -34.5t-80.5 -11.5q-92 0 -156 33z" />
<glyph unicode="&#xb9;" horiz-adv-x="880" d="M147 524v193h213v497l-184 -36l-18 176l250 53h180v-690h176v-193h-617z" />
<glyph unicode="&#xba;" horiz-adv-x="788" d="M82 1130q0 138 90.5 214.5t233.5 76.5q132 0 215.5 -73t83.5 -199q0 -138 -89.5 -212.5t-234.5 -74.5q-133 0 -216 71t-83 197zM287 1141q0 -66 30 -98.5t76 -32.5q52 0 79.5 34.5t27.5 98.5q0 67 -30.5 99t-76.5 32q-47 0 -76.5 -31.5t-29.5 -101.5z" />
<glyph unicode="&#xbb;" horiz-adv-x="983" d="M25 55l280 359l-280 415l206 50l328 -422v-74l-328 -377zM408 55l280 359l-280 415l206 50l328 -422v-74l-328 -377z" />
<glyph unicode="&#xbc;" horiz-adv-x="2097" d="M147 524v193h213v497l-184 -36l-18 176l250 53h180v-690h176v-193h-617zM586 0l706 1397h232l-705 -1397h-233zM1300 391l381 504l222 -12l-410 -531h188v191h213v-191h105v-170h-105v-182h-213v182h-362z" />
<glyph unicode="&#xbd;" horiz-adv-x="2097" d="M147 524v193h213v497l-184 -36l-18 176l250 53h180v-690h176v-193h-617zM586 0l706 1397h232l-705 -1397h-233zM1325 0v176q233 154 319.5 241t86.5 175q0 54 -37 86.5t-103 32.5q-103 0 -205 -45l-32 180q109 53 278 53q148 0 238 -72t90 -200q0 -54 -13.5 -102 t-48.5 -102t-100.5 -111.5t-163.5 -118.5h361l-19 -193h-651z" />
<glyph unicode="&#xbe;" horiz-adv-x="2097" d="M139 1380q48 20 126 30.5t145 10.5q142 0 221.5 -54t79.5 -155q0 -149 -158 -204v-11q98 -11 151.5 -60.5t53.5 -135.5q0 -140 -148 -215.5t-450 -75.5l-19 190q192 0 280.5 23t88.5 80q0 49 -34.5 62.5t-129.5 13.5h-133v188h109q89 0 129.5 17t40.5 67q0 47 -29.5 65.5 t-83.5 18.5q-46 0 -108 -11.5t-97 -29.5zM586 0l706 1397h232l-705 -1397h-233zM1300 391l381 504l222 -12l-410 -531h188v191h213v-191h105v-170h-105v-182h-213v182h-362z" />
<glyph unicode="&#xbf;" horiz-adv-x="772" d="M-6 -139q0 167 105 283.5t286 170.5l-10 217h200l95 -364q-213 -33 -310.5 -96t-97.5 -172q0 -83 52.5 -126.5t136.5 -43.5q125 0 196 47l43 -244q-118 -49 -289 -49q-113 0 -203.5 40.5t-147 127.5t-56.5 209zM324 778q0 63 44 105.5t109 42.5t108.5 -42.5t43.5 -105.5 q0 -65 -44 -109t-108 -44q-65 0 -109 44.5t-44 108.5z" />
<glyph unicode="&#xc0;" horiz-adv-x="1447" d="M39 0l526 1397h309l533 -1387l-332 -20l-123 348h-489l-123 -338h-301zM395 1710h297l135 -235h-206zM545 584h313l-119 336q-21 66 -28 133h-17q-9 -89 -26 -133z" />
<glyph unicode="&#xc1;" horiz-adv-x="1447" d="M39 0l526 1397h309l533 -1387l-332 -20l-123 348h-489l-123 -338h-301zM545 584h313l-119 336q-21 66 -28 133h-17q-9 -89 -26 -133zM606 1475l135 235h297l-225 -235h-207z" />
<glyph unicode="&#xc2;" horiz-adv-x="1447" d="M39 0l526 1397h309l533 -1387l-332 -20l-123 348h-489l-123 -338h-301zM399 1481l215 254h228l215 -254l-191 -13l-139 131l-143 -131zM545 584h313l-119 336q-21 66 -28 133h-17q-9 -89 -26 -133z" />
<glyph unicode="&#xc3;" horiz-adv-x="1447" d="M39 0l526 1397h309l533 -1387l-332 -20l-123 348h-489l-123 -338h-301zM365 1503q38 144 86.5 194t126.5 50q42 0 94 -23.5t95.5 -47t66.5 -23.5q40 0 57 17t39 77l145 -41q-30 -138 -80.5 -191t-126.5 -53q-40 0 -94 23.5t-99.5 47t-66.5 23.5q-39 0 -56 -16.5 t-40 -77.5zM545 584h313l-119 336q-21 66 -28 133h-17q-9 -89 -26 -133z" />
<glyph unicode="&#xc4;" horiz-adv-x="1447" d="M39 0l526 1397h309l533 -1387l-332 -20l-123 348h-489l-123 -338h-301zM401 1595q0 54 36.5 90.5t90.5 36.5t90.5 -36.5t36.5 -90.5t-36.5 -92.5t-90.5 -38.5t-90.5 38.5t-36.5 92.5zM545 584h313l-119 336q-21 66 -28 133h-17q-9 -89 -26 -133zM780 1595q0 54 36.5 90.5 t90.5 36.5t90.5 -36.5t36.5 -90.5t-36.5 -92.5t-90.5 -38.5t-90.5 38.5t-36.5 92.5z" />
<glyph unicode="&#xc5;" horiz-adv-x="1447" d="M39 0l518 1378q-70 54 -70 144q0 94 67.5 152.5t172.5 58.5q99 0 162 -54t63 -141q0 -99 -73 -156l528 -1372l-332 -20l-123 348h-489l-123 -338h-301zM545 584h313l-119 336q-21 66 -28 133h-17q-9 -89 -26 -133zM651 1532q0 -34 19 -54t49 -20q33 0 50 20.5t17 55.5 q0 36 -17.5 55t-47.5 19q-32 0 -51 -19.5t-19 -56.5z" />
<glyph unicode="&#xc6;" horiz-adv-x="1896" d="M39 4l616 1393h1084l-23 -273h-532v-288h493v-267h-493v-297h606l-21 -272h-890v530h-291l-234 -540zM674 774h205v416h-21z" />
<glyph unicode="&#xc7;" horiz-adv-x="1409" d="M92 674q0 148 41.5 272t112 210.5t166 147t203 89t223.5 28.5q129 0 259.5 -24t217.5 -74l-92 -289q-72 46 -172.5 72.5t-196.5 26.5q-70 0 -129 -14t-112 -47.5t-90.5 -84.5t-59 -130t-21.5 -179q0 -109 34 -190.5t94 -128t135 -69t165 -22.5q97 0 199 29t180 78 l66 -297q-88 -44 -216 -71t-251 -27q-154 0 -290 46t-240 131.5t-165 219t-61 297.5zM557 -426l35 137q46 -22 96 -22q35 0 57.5 16.5t22.5 46.5q0 37 -29.5 58t-74.5 24l22 109q111 0 188.5 -52t77.5 -151q0 -50 -22.5 -90t-59 -63t-77 -34.5t-80.5 -11.5q-92 0 -156 33z " />
<glyph unicode="&#xc8;" horiz-adv-x="1189" d="M168 0v1397h864l-22 -273h-533v-288h494v-267h-494v-297h606l-20 -272h-895zM264 1710h297l135 -235h-207z" />
<glyph unicode="&#xc9;" horiz-adv-x="1189" d="M168 0v1397h864l-22 -273h-533v-288h494v-267h-494v-297h606l-20 -272h-895zM438 1475l135 235h297l-225 -235h-207z" />
<glyph unicode="&#xca;" horiz-adv-x="1189" d="M168 0v1397h864l-22 -273h-533v-288h494v-267h-494v-297h606l-20 -272h-895zM258 1481l215 254h227l215 -254l-190 -13l-139 131l-144 -131z" />
<glyph unicode="&#xcb;" horiz-adv-x="1189" d="M168 0v1397h864l-22 -273h-533v-288h494v-267h-494v-297h606l-20 -272h-895zM272 1575q0 54 36.5 90.5t90.5 36.5t90.5 -36.5t36.5 -90.5t-36.5 -92.5t-90.5 -38.5t-90.5 38.5t-36.5 92.5zM651 1575q0 54 36.5 90.5t90.5 36.5t90.5 -36.5t36.5 -90.5t-36.5 -92.5 t-90.5 -38.5t-90.5 38.5t-36.5 92.5z" />
<glyph unicode="&#xcc;" horiz-adv-x="651" d="M47 1710h297l135 -235h-207zM168 0v1397h315v-1397h-315z" />
<glyph unicode="&#xcd;" horiz-adv-x="651" d="M168 0v1397h315v-1397h-315zM176 1475l135 235h297l-225 -235h-207z" />
<glyph unicode="&#xce;" horiz-adv-x="651" d="M0 1481l215 254h227l215 -254l-190 -13l-139 131l-144 -131zM168 0v1397h315v-1397h-315z" />
<glyph unicode="&#xcf;" horiz-adv-x="651" d="M12 1575q0 54 36.5 90.5t90.5 36.5t90.5 -36.5t36.5 -90.5t-36.5 -92.5t-90.5 -38.5t-90.5 38.5t-36.5 92.5zM168 0v1397h315v-1397h-315zM391 1575q0 54 36.5 90.5t90.5 36.5t90.5 -36.5t36.5 -90.5t-36.5 -92.5t-90.5 -38.5t-90.5 38.5t-36.5 92.5z" />
<glyph unicode="&#xd0;" horiz-adv-x="1544" d="M59 625v184h109v588h123q284 14 397 14q166 0 305 -44.5t241.5 -129.5t160 -216t57.5 -296q0 -182 -56 -324t-156 -232t-232.5 -136.5t-290.5 -46.5q-49 0 -151 3.5t-180 6.5l-77 4h-141v625h-109zM477 260q117 -10 203 -10q193 0 308.5 119.5t115.5 332.5q0 120 -35 208 t-97.5 138.5t-140 74.5t-172.5 24q-39 0 -182 -10v-328h248v-184h-248v-365z" />
<glyph unicode="&#xd1;" horiz-adv-x="1564" d="M168 0v1397h334l532 -725q47 -62 66 -113h14q-4 50 -4 107v731h287v-1393l-242 -29l-625 881q-47 65 -65 115h-14q4 -50 4 -107v-864h-287zM444 1503q38 144 86.5 194t126.5 50q42 0 94 -23.5t95.5 -47t66.5 -23.5q40 0 57.5 17t39.5 77l145 -41q-30 -138 -80.5 -191 t-126.5 -53q-40 0 -94 23.5t-99.5 47t-66.5 23.5q-39 0 -56 -16.5t-40 -77.5z" />
<glyph unicode="&#xd2;" horiz-adv-x="1652" d="M92 670q0 178 58 321.5t160 236.5t238.5 143t295.5 50q146 0 275.5 -47.5t228 -134.5t156 -220t57.5 -294q0 -180 -60.5 -324t-165 -234.5t-240.5 -138.5t-292 -48q-137 0 -264 46.5t-227 131.5t-160 218t-60 294zM442 698q0 -229 102 -340.5t279 -111.5t282 121t105 338 q0 118 -30 206.5t-83.5 140.5t-120.5 77.5t-147 25.5t-147 -24.5t-122 -76.5t-86.5 -143t-31.5 -213zM526 1710h297l135 -235h-206z" />
<glyph unicode="&#xd3;" horiz-adv-x="1652" d="M92 670q0 178 58 321.5t160 236.5t238.5 143t295.5 50q146 0 275.5 -47.5t228 -134.5t156 -220t57.5 -294q0 -180 -60.5 -324t-165 -234.5t-240.5 -138.5t-292 -48q-137 0 -264 46.5t-227 131.5t-160 218t-60 294zM442 698q0 -229 102 -340.5t279 -111.5t282 121t105 338 q0 118 -30 206.5t-83.5 140.5t-120.5 77.5t-147 25.5t-147 -24.5t-122 -76.5t-86.5 -143t-31.5 -213zM705 1475l135 235h297l-226 -235h-206z" />
<glyph unicode="&#xd4;" horiz-adv-x="1652" d="M92 670q0 178 58 321.5t160 236.5t238.5 143t295.5 50q146 0 275.5 -47.5t228 -134.5t156 -220t57.5 -294q0 -180 -60.5 -324t-165 -234.5t-240.5 -138.5t-292 -48q-137 0 -264 46.5t-227 131.5t-160 218t-60 294zM442 698q0 -229 102 -340.5t279 -111.5t282 121t105 338 q0 118 -30 206.5t-83.5 140.5t-120.5 77.5t-147 25.5t-147 -24.5t-122 -76.5t-86.5 -143t-31.5 -213zM502 1481l215 254h227l215 -254l-190 -13l-140 131l-143 -131z" />
<glyph unicode="&#xd5;" horiz-adv-x="1652" d="M92 670q0 178 58 321.5t160 236.5t238.5 143t295.5 50q146 0 275.5 -47.5t228 -134.5t156 -220t57.5 -294q0 -180 -60.5 -324t-165 -234.5t-240.5 -138.5t-292 -48q-137 0 -264 46.5t-227 131.5t-160 218t-60 294zM442 698q0 -229 102 -340.5t279 -111.5t282 121t105 338 q0 118 -30 206.5t-83.5 140.5t-120.5 77.5t-147 25.5t-147 -24.5t-122 -76.5t-86.5 -143t-31.5 -213zM469 1503q38 144 86.5 194t126.5 50q42 0 94 -23.5t95.5 -47t66.5 -23.5q40 0 57 17t39 77l146 -41q-30 -138 -80.5 -191t-126.5 -53q-40 0 -94 23.5t-99.5 47t-66.5 23.5 q-39 0 -56.5 -16.5t-40.5 -77.5z" />
<glyph unicode="&#xd6;" horiz-adv-x="1652" d="M92 670q0 178 58 321.5t160 236.5t238.5 143t295.5 50q146 0 275.5 -47.5t228 -134.5t156 -220t57.5 -294q0 -180 -60.5 -324t-165 -234.5t-240.5 -138.5t-292 -48q-137 0 -264 46.5t-227 131.5t-160 218t-60 294zM442 698q0 -229 102 -340.5t279 -111.5t282 121t105 338 q0 118 -30 206.5t-83.5 140.5t-120.5 77.5t-147 25.5t-147 -24.5t-122 -76.5t-86.5 -143t-31.5 -213zM510 1595q0 54 36.5 90.5t90.5 36.5t90.5 -36.5t36.5 -90.5t-36.5 -92.5t-90.5 -38.5t-90.5 38.5t-36.5 92.5zM889 1595q0 54 36.5 90.5t90.5 36.5t90.5 -36.5t36.5 -90.5 t-36.5 -92.5t-90.5 -38.5t-90.5 38.5t-36.5 92.5z" />
<glyph unicode="&#xd7;" d="M63 209l291 276l-288 277l163 158l285 -283l285 283l164 -158l-289 -277l291 -276l-166 -156l-285 281l-285 -281z" />
<glyph unicode="&#xd8;" horiz-adv-x="1652" d="M92 670q0 178 58 321.5t160 236.5t238.5 143t295.5 50q203 0 373 -92l114 152h105l-148 -195q128 -93 200.5 -235.5t72.5 -325.5q0 -180 -60.5 -324t-165 -234.5t-240.5 -138.5t-292 -48q-232 0 -412 116l-139 -184h-107l179 235q-109 91 -170.5 224t-61.5 299zM442 698 q0 -184 72 -299l526 697q-88 59 -211 59q-80 0 -147 -24.5t-122 -76.5t-86.5 -143t-31.5 -213zM569 332q96 -86 254 -86q177 0 282 121t105 338q0 218 -104 337z" />
<glyph unicode="&#xd9;" horiz-adv-x="1492" d="M166 483v914h315v-844q0 -77 10.5 -127t39.5 -90t84.5 -58t142.5 -18q154 0 219 72t65 227v838h285v-914q0 -107 -37 -198t-107.5 -159.5t-180 -107t-246.5 -38.5q-300 0 -445 124.5t-145 378.5zM467 1710h297l135 -235h-207z" />
<glyph unicode="&#xda;" horiz-adv-x="1492" d="M166 483v914h315v-844q0 -77 10.5 -127t39.5 -90t84.5 -58t142.5 -18q154 0 219 72t65 227v838h285v-914q0 -107 -37 -198t-107.5 -159.5t-180 -107t-246.5 -38.5q-300 0 -445 124.5t-145 378.5zM618 1475l136 235h297l-226 -235h-207z" />
<glyph unicode="&#xdb;" horiz-adv-x="1492" d="M166 483v914h315v-844q0 -77 10.5 -127t39.5 -90t84.5 -58t142.5 -18q154 0 219 72t65 227v838h285v-914q0 -107 -37 -198t-107.5 -159.5t-180 -107t-246.5 -38.5q-300 0 -445 124.5t-145 378.5zM436 1481l215 254h228l215 -254l-191 -13l-139 131l-143 -131z" />
<glyph unicode="&#xdc;" horiz-adv-x="1492" d="M166 483v914h315v-844q0 -77 10.5 -127t39.5 -90t84.5 -58t142.5 -18q154 0 219 72t65 227v838h285v-914q0 -107 -37 -198t-107.5 -159.5t-180 -107t-246.5 -38.5q-300 0 -445 124.5t-145 378.5zM449 1595q0 54 36 90.5t90 36.5t90.5 -36.5t36.5 -90.5t-36.5 -92.5 t-90.5 -38.5t-90 38t-36 93zM827 1595q0 54 36.5 90.5t90.5 36.5t90.5 -36.5t36.5 -90.5t-36.5 -92.5t-90.5 -38.5t-90.5 38.5t-36.5 92.5z" />
<glyph unicode="&#xdd;" horiz-adv-x="1347" d="M33 1380l364 27l262 -504q28 -55 37 -98h21q10 48 37 98l256 494h315l-473 -871v-526h-315v526zM594 1475l135 235h297l-225 -235h-207z" />
<glyph unicode="&#xde;" horiz-adv-x="1226" d="M168 0v1397h309v-250q105 6 191 6q230 0 353.5 -113.5t123.5 -310.5q0 -98 -28.5 -179t-76.5 -136.5t-112.5 -94t-135 -56t-145.5 -17.5q-53 0 -98 4l-25 235q23 -4 70 -4q105 0 173.5 54.5t68.5 166.5q0 105 -63.5 158t-164.5 53q-14 0 -131 -6v-907h-309z" />
<glyph unicode="&#xdf;" horiz-adv-x="1136" d="M123 0v1018q0 220 127 338.5t336 118.5q175 0 276 -82t101 -228q0 -49 -25 -106.5t-55 -101.5t-55 -97t-25 -94q0 -44 29 -89t70.5 -85t83 -83t70.5 -101t29 -121q0 -141 -105 -224t-265 -83q-150 0 -248 43l43 217q38 -19 96 -30t107 -11q86 0 86 65q0 28 -28.5 62 t-69.5 71t-81.5 80.5t-69 104t-28.5 127.5q0 60 23.5 123t51.5 106.5t51.5 93.5t23.5 86q0 46 -27 75.5t-82 29.5q-77 0 -113 -38t-36 -132v-1053h-291z" />
<glyph unicode="&#xe0;" horiz-adv-x="960" d="M68 227q0 79 33.5 145t93.5 107l356 35v45q0 67 -33.5 94t-103.5 27q-101 0 -217 -72l-76 211q183 107 379 107q165 0 247 -69.5t82 -235.5q0 -9 -3 -176.5t-3 -180.5q0 -64 11 -100l38 -127l-276 -57l-27 86q-75 -45 -130.5 -65.5t-125.5 -20.5q-114 0 -179.5 69 t-65.5 178zM164 1421h307l135 -403h-200zM360 276q0 -90 84 -90q40 0 103 29l2 143l-180 -24q-9 -27 -9 -58z" />
<glyph unicode="&#xe1;" horiz-adv-x="960" d="M68 227q0 79 33.5 145t93.5 107l356 35v45q0 67 -33.5 94t-103.5 27q-101 0 -217 -72l-76 211q183 107 379 107q165 0 247 -69.5t82 -235.5q0 -9 -3 -176.5t-3 -180.5q0 -64 11 -100l38 -127l-276 -57l-27 86q-75 -45 -130.5 -65.5t-125.5 -20.5q-114 0 -179.5 69 t-65.5 178zM360 276q0 -90 84 -90q40 0 103 29l2 143l-180 -24q-9 -27 -9 -58zM379 1018l135 403h307l-241 -403h-201z" />
<glyph unicode="&#xe2;" horiz-adv-x="960" d="M68 227q0 79 33.5 145t93.5 107l356 35v45q0 67 -33.5 94t-103.5 27q-101 0 -217 -72l-76 211q183 107 379 107q165 0 247 -69.5t82 -235.5q0 -9 -3 -176.5t-3 -180.5q0 -64 11 -100l38 -127l-276 -57l-27 86q-75 -45 -130.5 -65.5t-125.5 -20.5q-114 0 -179.5 69 t-65.5 178zM117 1028l229 393h260l234 -393l-207 -12l-158 219l-156 -219zM360 276q0 -90 84 -90q40 0 103 29l2 143l-180 -24q-9 -27 -9 -58z" />
<glyph unicode="&#xe3;" horiz-adv-x="960" d="M68 227q0 79 33.5 145t93.5 107l356 35v45q0 67 -33.5 94t-103.5 27q-101 0 -217 -72l-76 211q183 107 379 107q165 0 247 -69.5t82 -235.5q0 -9 -3 -176.5t-3 -180.5q0 -64 11 -100l38 -127l-276 -57l-27 86q-75 -45 -130.5 -65.5t-125.5 -20.5q-114 0 -179.5 69 t-65.5 178zM127 1100q39 150 83.5 202t129.5 52q42 0 94 -23.5t95.5 -47t66.5 -23.5q40 0 57 17t39 77l146 -41q-32 -145 -77.5 -199.5t-129.5 -54.5q-40 0 -94 23.5t-99.5 47t-66.5 23.5q-39 0 -56.5 -16.5t-40.5 -77.5zM360 276q0 -90 84 -90q40 0 103 29l2 143l-180 -24 q-9 -27 -9 -58z" />
<glyph unicode="&#xe4;" horiz-adv-x="960" d="M68 227q0 79 33.5 145t93.5 107l356 35v45q0 67 -33.5 94t-103.5 27q-101 0 -217 -72l-76 211q183 107 379 107q165 0 247 -69.5t82 -235.5q0 -9 -3 -176.5t-3 -180.5q0 -64 11 -100l38 -127l-276 -57l-27 86q-75 -45 -130.5 -65.5t-125.5 -20.5q-114 0 -179.5 69 t-65.5 178zM166 1241q0 54 36.5 90.5t90.5 36.5t90.5 -36.5t36.5 -90.5t-36.5 -92.5t-90.5 -38.5t-90.5 38.5t-36.5 92.5zM360 276q0 -90 84 -90q40 0 103 29l2 143l-180 -24q-9 -27 -9 -58zM545 1241q0 54 36.5 90.5t90.5 36.5t90.5 -36.5t36.5 -90.5t-36.5 -92.5 t-90.5 -38.5t-90.5 38.5t-36.5 92.5z" />
<glyph unicode="&#xe5;" horiz-adv-x="960" d="M68 227q0 79 33.5 145t93.5 107l356 35v45q0 67 -33.5 94t-103.5 27q-101 0 -217 -72l-76 211q183 107 379 107q165 0 247 -69.5t82 -235.5q0 -9 -3 -176.5t-3 -180.5q0 -64 11 -100l38 -127l-276 -57l-27 86q-75 -45 -130.5 -65.5t-125.5 -20.5q-114 0 -179.5 69 t-65.5 178zM260 1208q0 94 67.5 152.5t172.5 58.5q99 0 162 -53.5t63 -140.5q0 -97 -69 -153t-173 -56q-93 0 -158 53t-65 139zM360 276q0 -90 84 -90q40 0 103 29l2 143l-180 -24q-9 -27 -9 -58zM424 1219q0 -34 19 -54t49 -20q33 0 50 20.5t17 55.5q0 36 -17.5 54.5 t-47.5 18.5q-32 0 -51 -19t-19 -56z" />
<glyph unicode="&#xe6;" horiz-adv-x="1458" d="M68 227q0 79 34.5 147t92.5 105l356 29v51q0 67 -33.5 94t-103.5 27q-101 0 -217 -72l-76 211q183 107 379 107q160 0 219 -99q93 99 260 99q169 0 266.5 -104.5t97.5 -268.5q0 -97 -8 -141h-520q-2 -10 -2 -17q0 -90 58.5 -134t158.5 -44q130 0 246 90l84 -190 q-143 -137 -387 -137q-205 0 -320 133q-124 -84 -196 -108.5t-144 -24.5q-114 0 -179.5 69t-65.5 178zM360 276q0 -90 84 -90q49 0 125 37q-20 55 -20 129l-180 -18q-9 -27 -9 -58zM819 573h250v39q0 57 -31 92t-88 35q-61 0 -95 -43t-36 -123z" />
<glyph unicode="&#xe7;" horiz-adv-x="917" d="M68 449q0 94 26.5 173t72 134.5t106.5 94t130.5 57t143.5 18.5q184 0 291 -43l-58 -246q-87 41 -174 41q-104 0 -161.5 -60.5t-57.5 -173.5q0 -206 205 -206q128 0 209 75l84 -229h2q-142 -104 -334 -104q-214 0 -349.5 126t-135.5 343zM317 -426l35 137q46 -22 97 -22 q35 0 57 16.5t22 46.5q0 37 -29.5 58t-74.5 24l22 109q111 0 189 -52t78 -151q0 -50 -23 -90t-59.5 -63t-77 -34.5t-80.5 -11.5q-92 0 -156 33z" />
<glyph unicode="&#xe8;" horiz-adv-x="991" d="M68 442q0 116 39 210.5t104 153t145 89.5t166 31q189 0 288 -104t99 -271q0 -95 -8 -139h-520q-2 -10 -2 -17q0 -89 58.5 -133.5t158.5 -44.5q130 0 246 90l84 -190q-143 -137 -387 -137q-91 0 -174.5 29.5t-150 85t-106.5 145.5t-40 202zM182 1421h307l136 -403h-201z M385 573h250v39q0 57 -31 92t-88 35q-61 0 -95 -43t-36 -123z" />
<glyph unicode="&#xe9;" horiz-adv-x="991" d="M68 442q0 116 39 210.5t104 153t145 89.5t166 31q189 0 288 -104t99 -271q0 -95 -8 -139h-520q-2 -10 -2 -17q0 -89 58.5 -133.5t158.5 -44.5q130 0 246 90l84 -190q-143 -137 -387 -137q-91 0 -174.5 29.5t-150 85t-106.5 145.5t-40 202zM385 573h250v39q0 57 -31 92 t-88 35q-61 0 -95 -43t-36 -123zM397 1018l135 403h308l-242 -403h-201z" />
<glyph unicode="&#xea;" horiz-adv-x="991" d="M68 442q0 116 39 210.5t104 153t145 89.5t166 31q189 0 288 -104t99 -271q0 -95 -8 -139h-520q-2 -10 -2 -17q0 -89 58.5 -133.5t158.5 -44.5q130 0 246 90l84 -190q-143 -137 -387 -137q-91 0 -174.5 29.5t-150 85t-106.5 145.5t-40 202zM156 1028l229 393h260l234 -393 l-207 -12l-158 219l-156 -219zM385 573h250v39q0 57 -31 92t-88 35q-61 0 -95 -43t-36 -123z" />
<glyph unicode="&#xeb;" horiz-adv-x="991" d="M68 442q0 116 39 210.5t104 153t145 89.5t166 31q189 0 288 -104t99 -271q0 -95 -8 -139h-520q-2 -10 -2 -17q0 -89 58.5 -133.5t158.5 -44.5q130 0 246 90l84 -190q-143 -137 -387 -137q-91 0 -174.5 29.5t-150 85t-106.5 145.5t-40 202zM203 1241q0 54 36.5 90.5 t90.5 36.5t90.5 -36.5t36.5 -90.5t-36.5 -92.5t-90.5 -38.5t-90.5 38.5t-36.5 92.5zM385 573h250v39q0 57 -31 92t-88 35q-61 0 -95 -43t-36 -123zM582 1241q0 54 36.5 90.5t90.5 36.5t90.5 -36.5t36.5 -90.5t-36.5 -92.5t-90.5 -38.5t-90.5 38.5t-36.5 92.5z" />
<glyph unicode="&#xec;" horiz-adv-x="565" d="M-20 1421h307l135 -403h-201zM137 0v893l291 25v-918h-291z" />
<glyph unicode="&#xed;" horiz-adv-x="565" d="M137 0v893l291 25v-918h-291zM141 1018l135 403h308l-242 -403h-201z" />
<glyph unicode="&#xee;" horiz-adv-x="565" d="M-78 1028l230 393h260l233 -393l-207 -12l-157 219l-156 -219zM137 0v893l291 25v-918h-291z" />
<glyph unicode="&#xef;" horiz-adv-x="565" d="M-35 1241q0 54 36.5 90.5t90.5 36.5t90.5 -36.5t36.5 -90.5t-36.5 -92.5t-90.5 -38.5t-90.5 38.5t-36.5 92.5zM137 0v893l291 25v-918h-291zM344 1241q0 54 36.5 90.5t90.5 36.5t90.5 -36.5t36.5 -90.5t-36.5 -92.5t-90.5 -38.5t-90.5 38.5t-36.5 92.5z" />
<glyph unicode="&#xf0;" horiz-adv-x="1089" d="M61 457q0 108 33.5 195.5t91 143.5t133 86.5t160.5 30.5q134 0 209 -45q-19 229 -196 289l-152 -160l-139 68l110 117q-109 -4 -192 -33v260q131 25 266 25q81 0 152 -15l81 86l142 -63l-70 -74q328 -162 328 -733q0 -310 -133.5 -482.5t-362.5 -172.5q-223 0 -342 128.5 t-119 348.5zM381 465q0 -136 44 -193t124 -57q172 0 172 250q0 108 -44.5 168.5t-121.5 60.5q-174 0 -174 -229z" />
<glyph unicode="&#xf1;" horiz-adv-x="1122" d="M137 0v893l287 25v-97q112 105 240 105q152 0 238.5 -82.5t86.5 -263.5v-580h-291v528q0 89 -40 126.5t-101 37.5q-65 0 -129 -37v-655h-291zM217 1100q39 150 83.5 202t129.5 52q42 0 94 -23.5t95.5 -47t66.5 -23.5q40 0 57 17t39 77l146 -41q-32 -145 -77.5 -199.5 t-129.5 -54.5q-40 0 -94 23.5t-99.5 47t-66.5 23.5q-39 0 -56 -16.5t-40 -77.5z" />
<glyph unicode="&#xf2;" horiz-adv-x="1107" d="M68 430q0 225 139.5 360.5t361.5 135.5q208 0 339.5 -123t131.5 -332q0 -227 -142.5 -359t-362.5 -132q-201 0 -334 122.5t-133 327.5zM242 1421h307l135 -403h-201zM387 457q0 -118 45 -179t119 -61q83 0 126.5 60.5t43.5 179.5q0 121 -46 179t-120 58q-168 0 -168 -237 z" />
<glyph unicode="&#xf3;" horiz-adv-x="1107" d="M68 430q0 225 139.5 360.5t361.5 135.5q208 0 339.5 -123t131.5 -332q0 -227 -142.5 -359t-362.5 -132q-201 0 -334 122.5t-133 327.5zM387 457q0 -118 45 -179t119 -61q83 0 126.5 60.5t43.5 179.5q0 121 -46 179t-120 58q-168 0 -168 -237zM455 1018l135 403h307 l-242 -403h-200z" />
<glyph unicode="&#xf4;" horiz-adv-x="1107" d="M68 430q0 225 139.5 360.5t361.5 135.5q208 0 339.5 -123t131.5 -332q0 -227 -142.5 -359t-362.5 -132q-201 0 -334 122.5t-133 327.5zM190 1028l230 393h260l233 -393l-206 -12l-158 219l-156 -219zM387 457q0 -118 45 -179t119 -61q83 0 126.5 60.5t43.5 179.5 q0 121 -46 179t-120 58q-168 0 -168 -237z" />
<glyph unicode="&#xf5;" horiz-adv-x="1107" d="M68 430q0 225 139.5 360.5t361.5 135.5q208 0 339.5 -123t131.5 -332q0 -227 -142.5 -359t-362.5 -132q-201 0 -334 122.5t-133 327.5zM201 1100q39 150 83.5 202t129.5 52q42 0 94 -23.5t95.5 -47t66.5 -23.5q40 0 57 17t39 77l145 -41q-32 -145 -77 -199.5t-129 -54.5 q-40 0 -94 23.5t-100 47t-67 23.5q-39 0 -56 -16.5t-40 -77.5zM387 457q0 -118 45 -179t119 -61q83 0 126.5 60.5t43.5 179.5q0 121 -46 179t-120 58q-168 0 -168 -237z" />
<glyph unicode="&#xf6;" horiz-adv-x="1107" d="M68 430q0 225 139.5 360.5t361.5 135.5q208 0 339.5 -123t131.5 -332q0 -227 -142.5 -359t-362.5 -132q-201 0 -334 122.5t-133 327.5zM233 1241q0 54 36.5 90.5t90.5 36.5t90.5 -36.5t36.5 -90.5t-36.5 -92.5t-90.5 -38.5t-90.5 38.5t-36.5 92.5zM387 457 q0 -118 45 -179t119 -61q83 0 126.5 60.5t43.5 179.5q0 121 -46 179t-120 58q-168 0 -168 -237zM612 1241q0 54 36.5 90.5t90.5 36.5t90.5 -36.5t36.5 -90.5t-36.5 -92.5t-90.5 -38.5t-90.5 38.5t-36.5 92.5z" />
<glyph unicode="&#xf7;" d="M104 395v168h814v-168h-814zM352 160q0 69 45 115.5t111 46.5t111 -46.5t45 -115.5q0 -67 -45 -112.5t-111 -45.5t-111 45.5t-45 112.5zM352 805q0 69 45.5 115.5t110.5 46.5q66 0 111 -46.5t45 -115.5q0 -67 -45 -112.5t-111 -45.5q-65 0 -110.5 45.5t-45.5 112.5z" />
<glyph unicode="&#xf8;" horiz-adv-x="1107" d="M68 430q0 225 139.5 360.5t361.5 135.5q130 0 228 -49l129 192h86l-152 -227q85 -58 132.5 -153.5t47.5 -217.5q0 -227 -142.5 -359t-362.5 -132q-122 0 -222 47l-123 -185h-88l148 219q-87 60 -134.5 154t-47.5 215zM387 457q0 -88 27 -150l237 352q-38 35 -96 35 q-168 0 -168 -237zM461 246q36 -29 90 -29q83 0 126.5 60.5t43.5 179.5q0 79 -25 141z" />
<glyph unicode="&#xf9;" horiz-adv-x="1128" d="M133 317v576l291 25v-562q0 -69 33 -97t92 -28q78 0 147 60v602l291 25v-693q0 -91 23 -223l-293 -20l-10 96q-74 -51 -137 -74.5t-132 -23.5q-146 0 -225.5 78t-79.5 259zM223 1421h307l136 -403h-201z" />
<glyph unicode="&#xfa;" horiz-adv-x="1128" d="M133 317v576l291 25v-562q0 -69 33 -97t92 -28q78 0 147 60v602l291 25v-693q0 -91 23 -223l-293 -20l-10 96q-74 -51 -137 -74.5t-132 -23.5q-146 0 -225.5 78t-79.5 259zM461 1018l135 403h307l-241 -403h-201z" />
<glyph unicode="&#xfb;" horiz-adv-x="1128" d="M133 317v576l291 25v-562q0 -69 33 -97t92 -28q78 0 147 60v602l291 25v-693q0 -91 23 -223l-293 -20l-10 96q-74 -51 -137 -74.5t-132 -23.5q-146 0 -225.5 78t-79.5 259zM201 1028l229 393h260l234 -393l-207 -12l-158 219l-156 -219z" />
<glyph unicode="&#xfc;" horiz-adv-x="1128" d="M133 317v576l291 25v-562q0 -69 33 -97t92 -28q78 0 147 60v602l291 25v-693q0 -91 23 -223l-293 -20l-10 96q-74 -51 -137 -74.5t-132 -23.5q-146 0 -225.5 78t-79.5 259zM246 1241q0 54 36.5 90.5t90.5 36.5t90.5 -36.5t36.5 -90.5t-36.5 -92.5t-90.5 -38.5t-90.5 38.5 t-36.5 92.5zM625 1241q0 54 36.5 90.5t90.5 36.5t90.5 -36.5t36.5 -90.5t-36.5 -92.5t-90.5 -38.5t-90.5 38.5t-36.5 92.5z" />
<glyph unicode="&#xfd;" horiz-adv-x="993" d="M-31 -297q136 22 231 90.5t150 206.5h-55l-266 893l315 20l127 -528q13 -60 16 -94h19q7 46 24 94l183 518h291l-308 -788q-117 -300 -260.5 -457t-320.5 -207zM420 1018l135 403h307l-241 -403h-201z" />
<glyph unicode="&#xfe;" horiz-adv-x="1107" d="M137 -526v1964l291 24v-657q93 121 250 121q173 0 267.5 -118t94.5 -327q0 -118 -39.5 -215.5t-104 -158.5t-142.5 -94t-160 -33q-113 0 -166 20v-526h-291zM428 236q39 -27 107 -27q91 0 140.5 55.5t49.5 200.5q0 237 -184 237q-63 0 -113 -40v-426z" />
<glyph unicode="&#xff;" horiz-adv-x="993" d="M-31 -297q136 22 231 90.5t150 206.5h-55l-266 893l315 20l127 -528q13 -60 16 -94h19q7 46 24 94l183 518h291l-308 -788q-117 -300 -260.5 -457t-320.5 -207zM211 1241q0 54 36.5 90.5t90.5 36.5t90.5 -36.5t36.5 -90.5t-36.5 -92.5t-90.5 -38.5t-90.5 38.5t-36.5 92.5 zM590 1241q0 54 36.5 90.5t90.5 36.5t90.5 -36.5t36.5 -90.5t-36.5 -92.5t-90.5 -38.5t-90.5 38.5t-36.5 92.5z" />
<glyph unicode="&#x152;" horiz-adv-x="2191" d="M92 674q0 177 57 320.5t156 235.5t228.5 141.5t277.5 49.5q116 0 216.5 -40.5t156.5 -120.5h6v137h844l-23 -273h-532v-288h493v-267h-493v-297h606l-21 -272h-874v156h-6q-70 -94 -176 -135t-250 -41q-100 0 -196.5 29t-181.5 88t-149 140.5t-101.5 194.5t-37.5 242z M444 698q0 -230 95.5 -342t269.5 -112q367 0 367 461q0 232 -92.5 341t-256.5 109q-79 0 -145 -24t-121 -75.5t-86 -142.5t-31 -215z" />
<glyph unicode="&#x153;" horiz-adv-x="1632" d="M68 430q0 232 136.5 364t360.5 132q92 0 171.5 -33t129.5 -94q115 127 289 127q189 0 287 -103.5t98 -271.5q0 -95 -8 -139h-520q-2 -10 -2 -17q0 -90 58.5 -134t158.5 -44q130 0 246 90l83 -190q-143 -137 -387 -137q-201 0 -313 133q-112 -133 -324 -133 q-133 0 -236.5 51t-165.5 154t-62 245zM385 457q0 -127 46 -183.5t122 -56.5q162 0 162 242q0 130 -43 182.5t-117 52.5q-36 0 -64 -9.5t-53.5 -34t-39 -73t-13.5 -120.5zM1016 573h250v39q0 57 -31 92t-88 35q-61 0 -95 -43t-36 -123z" />
<glyph unicode="&#x178;" horiz-adv-x="1347" d="M33 1380l364 27l262 -504q28 -55 37 -98h21q10 48 37 98l256 494h315l-473 -871v-526h-315v526zM399 1575q0 54 36.5 90.5t90.5 36.5t90.5 -36.5t36.5 -90.5t-36.5 -92.5t-90.5 -38.5t-90.5 38.5t-36.5 92.5zM778 1575q0 54 36.5 90.5t90.5 36.5t90.5 -36.5t36.5 -90.5 t-36.5 -92.5t-90.5 -38.5t-90.5 38.5t-36.5 92.5z" />
<glyph unicode="&#x2c6;" d="M133 1028l229 393h261l233 -393l-207 -12l-157 219l-156 -219z" />
<glyph unicode="&#x2dc;" d="M141 1100q39 150 83.5 202t129.5 52q42 0 94 -23.5t95.5 -47t66.5 -23.5q40 0 57.5 17t39.5 77l145 -41q-32 -145 -77.5 -199.5t-129.5 -54.5q-40 0 -94 23.5t-99.5 47t-66.5 23.5q-39 0 -56 -16.5t-40 -77.5z" />
<glyph unicode="&#x2000;" horiz-adv-x="873" />
<glyph unicode="&#x2001;" horiz-adv-x="1747" />
<glyph unicode="&#x2002;" horiz-adv-x="873" />
<glyph unicode="&#x2003;" horiz-adv-x="1747" />
<glyph unicode="&#x2004;" horiz-adv-x="582" />
<glyph unicode="&#x2005;" horiz-adv-x="436" />
<glyph unicode="&#x2006;" horiz-adv-x="291" />
<glyph unicode="&#x2007;" horiz-adv-x="291" />
<glyph unicode="&#x2008;" horiz-adv-x="218" />
<glyph unicode="&#x2009;" horiz-adv-x="349" />
<glyph unicode="&#x200a;" horiz-adv-x="97" />
<glyph unicode="&#x2010;" horiz-adv-x="700" d="M86 393v203h528v-203h-528z" />
<glyph unicode="&#x2011;" horiz-adv-x="700" d="M86 393v203h528v-203h-528z" />
<glyph unicode="&#x2012;" horiz-adv-x="700" d="M86 393v203h528v-203h-528z" />
<glyph unicode="&#x2013;" d="M68 393v203h888v-203h-888z" />
<glyph unicode="&#x2014;" horiz-adv-x="2048" d="M68 393v203h1912v-203h-1912z" />
<glyph unicode="&#x2018;" horiz-adv-x="456" d="M25 1010q29 153 66.5 236.5t154.5 240.5l211 -21q-78 -168 -105 -247.5t-45 -208.5h-282z" />
<glyph unicode="&#x2019;" horiz-adv-x="456" d="M0 1018q77 167 104.5 247.5t45.5 209.5h282q-29 -154 -66.5 -237.5t-154.5 -240.5z" />
<glyph unicode="&#x201a;" horiz-adv-x="456" d="M0 -207q77 167 104.5 247.5t45.5 209.5h282q-29 -153 -66.5 -236.5t-154.5 -240.5z" />
<glyph unicode="&#x201c;" horiz-adv-x="854" d="M25 1010q29 153 66.5 236.5t154.5 240.5l211 -21q-78 -168 -105 -247.5t-45 -208.5h-282zM422 1010q29 153 66.5 236.5t154.5 240.5l211 -21q-77 -166 -104 -246t-45 -210h-283z" />
<glyph unicode="&#x201d;" horiz-adv-x="854" d="M0 1018q77 167 104.5 247.5t45.5 209.5h282q-29 -154 -66.5 -237.5t-154.5 -240.5zM397 1018q77 167 104.5 247.5t45.5 209.5h282q-29 -154 -66.5 -237.5t-154.5 -240.5z" />
<glyph unicode="&#x201e;" horiz-adv-x="854" d="M0 -207q77 167 104.5 247.5t45.5 209.5h282q-29 -153 -66.5 -236.5t-154.5 -240.5zM397 -207q77 167 104.5 247.5t45.5 209.5h282q-29 -153 -66.5 -236.5t-154.5 -240.5z" />
<glyph unicode="&#x2022;" horiz-adv-x="716" d="M82 457q0 114 81 195t195 81t195.5 -81t81.5 -195t-81.5 -194.5t-195.5 -80.5t-195 80.5t-81 194.5z" />
<glyph unicode="&#x2026;" horiz-adv-x="1392" d="M102 127q0 65 45 109.5t109 44.5t108 -44.5t44 -109.5q0 -63 -43.5 -105t-108.5 -42t-109.5 42t-44.5 105zM543 127q0 65 43.5 109.5t107.5 44.5t109 -44.5t45 -109.5q0 -63 -44.5 -105t-109.5 -42t-108 42t-43 105zM981 127q0 65 44.5 109.5t109.5 44.5 q64 0 108.5 -44.5t44.5 -109.5q0 -63 -44 -105t-109 -42t-109.5 42t-44.5 105z" />
<glyph unicode="&#x202f;" horiz-adv-x="349" />
<glyph unicode="&#x2039;" horiz-adv-x="600" d="M41 428v74l328 377l206 -50l-280 -358l280 -416l-206 -49z" />
<glyph unicode="&#x203a;" horiz-adv-x="600" d="M25 55l280 359l-280 415l206 50l328 -422v-74l-328 -377z" />
<glyph unicode="&#x205f;" horiz-adv-x="436" />
<glyph unicode="&#x20ac;" horiz-adv-x="1062" d="M45 481l31 152h90v45q0 36 4 90h-125l31 152h106q15 110 51 197.5t84.5 143t110 92.5t123.5 52.5t129 15.5q170 0 301 -45l-27 -239q-47 17 -117.5 29t-127.5 12q-226 0 -246 -258h387l-29 -152h-366q-2 -31 -2 -82v-53h405l-29 -152h-368q22 -239 254 -239q63 0 130 18 t111 47l41 -244q-124 -83 -335 -83q-70 0 -134 16t-125.5 53.5t-108 93.5t-78.5 143t-40 195h-131z" />
<glyph unicode="&#x2122;" horiz-adv-x="2676" d="M66 1217h925l-12 -244h-315v-805h-267v805h-319zM1096 170l88 1047h336l235 -682q11 -32 14 -66h15q4 42 14 68l250 680h330l88 -1049h-283l-41 584q-2 16 -2 61h-14q-3 -29 -12 -61l-216 -584h-303l-194 584q-10 34 -12 61h-17q0 -45 -2 -61l-43 -590z" />
<glyph unicode="&#x25fc;" horiz-adv-x="911" d="M0 0v911h911v-911h-911z" />
<glyph unicode="&#xfb01;" horiz-adv-x="1236" d="M41 668v235h147v107q0 206 116.5 335.5t281.5 129.5q70 0 141 -11l-18 -266q-44 6 -78 6q-74 0 -113 -31.5t-39 -115.5v-154h391l230 15v-918h-291v668h-330v-668h-291v668h-147zM827 1241q0 54 36.5 90.5t90.5 36.5t91.5 -36.5t37.5 -90.5t-37.5 -92.5t-91.5 -38.5 t-90.5 38.5t-36.5 92.5z" />
<glyph unicode="&#xfb02;" horiz-adv-x="1261" d="M41 668v235h147v107q0 221 120 333.5t327 112.5q81 0 231 -16l258 22v-1462h-290v1186q-72 16 -160 16q-103 0 -149 -39t-46 -131v-129h191v-235h-191v-668h-291v668h-147z" />
</font>
</defs>
</svg>
