<?xml version="1.0" standalone="no"?>
<!DOCTYPE svg PUBLIC "-//W3C//DTD SVG 1.1//EN" "http://www.w3.org/Graphics/SVG/1.1/DTD/svg11.dtd" >
<svg xmlns="http://www.w3.org/2000/svg" xmlns:xlink="http://www.w3.org/1999/xlink" version="1.1">
<metadata></metadata>
<defs>
<font id="absarasans-regularregular" horiz-adv-x="1024" >
<font-face units-per-em="2048" ascent="1638" descent="-410" />
<missing-glyph horiz-adv-x="491" />
<glyph horiz-adv-x="0" />
<glyph horiz-adv-x="682" />
<glyph unicode=" "  horiz-adv-x="491" />
<glyph unicode="&#x09;" horiz-adv-x="491" />
<glyph unicode="&#xa0;" horiz-adv-x="491" />
<glyph unicode="!" horiz-adv-x="512" d="M143 94q0 47 34 81t81 34t82 -34t35 -81t-34.5 -80.5t-82.5 -33.5q-47 0 -81 33.5t-34 80.5zM158 1397h202l-41 -1024h-122z" />
<glyph unicode="&#x22;" horiz-adv-x="673" d="M109 1475h180l-23 -457h-135zM385 1475h180l-22 -457h-135z" />
<glyph unicode="#" horiz-adv-x="1042" d="M45 397v119h209l84 395h-193v123h220l77 363h123l-78 -363h209l80 363h123l-78 -363h176v-123h-200l-86 -395h186v-119h-213l-84 -397h-125l86 397h-209l-86 -397h-125l86 397h-182zM377 516h209l84 395h-207z" />
<glyph unicode="$" horiz-adv-x="1042" d="M156 221l45 162q47 -42 127.5 -69t169.5 -27q113 0 173 43t60 119q0 48 -31 86.5t-81 64.5t-110.5 50t-120.5 52t-110 62t-81 87.5t-31 121.5q0 100 62 176.5t157 101.5v170h119v-143q23 2 57 2h35v141h119v-151q79 -8 149 -29l-35 -164q-53 26 -125.5 39.5t-134.5 13.5 q-107 0 -164 -37.5t-57 -109.5q0 -38 31.5 -69.5t81.5 -56t111 -49.5t122 -56t111 -69t81.5 -96t31.5 -130q0 -105 -62 -184t-178 -111v-182h-119v159q-25 -2 -53 -2h-39v-157h-119v172q-110 18 -192 69z" />
<glyph unicode="%" horiz-adv-x="1490" d="M78 1079q0 158 82.5 250t222.5 92q138 0 214.5 -91t76.5 -251q0 -159 -82 -252.5t-221 -93.5t-216 92t-77 254zM219 0l918 1397h125l-916 -1397h-127zM225 1081q0 -42 7.5 -78.5t24 -68.5t47.5 -50t73 -18q58 0 93 35t45.5 79.5t10.5 100.5q0 213 -149 213q-41 0 -72 -18 t-47.5 -49t-24.5 -67.5t-8 -78.5zM815 326q0 158 82.5 250t222.5 92q138 0 214.5 -91t76.5 -251q0 -159 -82 -252.5t-221 -93.5t-216 92t-77 254zM963 328q0 -43 7.5 -79t24 -68t47 -50t72.5 -18q44 0 75 19t46.5 52.5t22 68t6.5 75.5q0 213 -150 213q-41 0 -71.5 -18 t-47.5 -49t-24.5 -67.5t-7.5 -78.5z" />
<glyph unicode="&#x26;" horiz-adv-x="1474" d="M70 385q0 163 100.5 283t273.5 184q-49 91 -49 219q0 109 53 190.5t133 120.5t173 39q173 0 264 -55l-45 -166q-40 26 -98.5 43t-112.5 17q-80 0 -134.5 -50t-54.5 -135q0 -92 64 -205t223 -270l168 -168q125 214 125 471l180 -16q0 -155 -46.5 -307.5t-131.5 -272.5 l293 -291l-180 -57l-224 221q-210 -200 -489 -200q-222 0 -353.5 104.5t-131.5 300.5zM264 393q0 -129 84 -194.5t213 -65.5q207 0 363 162l-189 184q-128 124 -213 238q-258 -93 -258 -324z" />
<glyph unicode="'" horiz-adv-x="397" d="M109 1475h180l-23 -457h-135z" />
<glyph unicode="(" horiz-adv-x="628" d="M115 451q0 211 40 387.5t112 303t169.5 211t216.5 124.5l64 -134q-65 -25 -120.5 -64t-112 -110.5t-96 -166t-64.5 -236.5t-25 -315q0 -361 103 -580t317 -309l-66 -137q-136 36 -240 128t-168.5 228t-97 304.5t-32.5 365.5z" />
<glyph unicode=")" horiz-adv-x="628" d="M-123 1339l66 138q136 -36 240 -128t168.5 -228t97 -304.5t32.5 -365.5q0 -211 -40 -387.5t-112 -303t-169.5 -211t-216.5 -124.5l-64 133q65 25 120.5 64t112 110.5t96 166t64.5 237t25 315.5q0 361 -103 579.5t-317 308.5z" />
<glyph unicode="*" horiz-adv-x="753" d="M47 1182l49 145l180 -82l43 35l-18 195h154l-17 -193l43 -37l181 82l47 -145l-189 -47l-18 -52l125 -145l-123 -92l-96 168h-56l-100 -168l-125 92l133 145l-22 52z" />
<glyph unicode="+" d="M82 420v149h352v385h158v-385h352v-149h-352v-397h-158v397h-352z" />
<glyph unicode="," horiz-adv-x="434" d="M6 -356q118 185 158.5 304.5t48.5 225.5l205 -12q-18 -128 -76 -262t-192 -301z" />
<glyph unicode="-" horiz-adv-x="653" d="M76 446v144h504v-144h-504z" />
<glyph unicode="." horiz-adv-x="411" d="M106 94q0 47 34 81t81 34t82 -34t35 -81t-34.5 -80.5t-82.5 -33.5q-47 0 -81 33.5t-34 80.5z" />
<glyph unicode="/" horiz-adv-x="751" d="M-37 0l641 1448h195l-639 -1448h-197z" />
<glyph unicode="0" horiz-adv-x="1042" d="M76 514q0 248 121 387t333 139q210 0 324.5 -138t114.5 -388q0 -249 -121.5 -391.5t-333.5 -142.5q-211 0 -324.5 139.5t-113.5 394.5zM262 516q0 -82 13 -147.5t41.5 -119t80.5 -83t123 -29.5q59 0 105.5 21.5t75.5 57t47.5 85.5t26 102.5t7.5 112.5q0 175 -60.5 271 t-201.5 96q-133 0 -195.5 -100.5t-62.5 -266.5z" />
<glyph unicode="1" horiz-adv-x="1042" d="M188 0v164h320v696l-270 -53l-21 149l301 84h174v-876h262l-16 -164h-750z" />
<glyph unicode="2" horiz-adv-x="1042" d="M90 0v133q334 175 471 293t137 244q0 104 -66 153t-177 49q-67 0 -137.5 -17t-112.5 -42l-35 166q56 29 143.5 45t175.5 16q178 0 292 -94t114 -256q0 -145 -98 -262t-346 -264h522l-17 -164h-866z" />
<glyph unicode="3" horiz-adv-x="1042" d="M72 -227q274 0 442 83.5t168 223.5q0 113 -69 159t-226 46h-160v172h123q291 0 291 217q0 196 -231 196q-137 0 -254 -57l-31 168q57 29 144.5 44t164.5 15q172 0 286 -91t114 -244q0 -107 -53.5 -184t-149.5 -118v-8q118 -23 188 -101.5t70 -211.5q0 -129 -99.5 -238.5 t-282 -176t-407.5 -66.5z" />
<glyph unicode="4" horiz-adv-x="1042" d="M66 158l552 880l197 -20l-549 -858h377v403h178v-403h176v-160h-176v-385h-178v385h-561z" />
<glyph unicode="5" horiz-adv-x="1042" d="M141 -227q264 0 422 75t158 218q0 66 -30.5 113.5t-84.5 72.5t-115.5 36t-136.5 11q-131 0 -207 -12l91 733h651l-21 -170h-475l-49 -389h45q81 0 154 -12t141 -40.5t117.5 -71t79.5 -108.5t30 -149q0 -116 -59 -208.5t-161.5 -150.5t-235.5 -89t-285 -31z" />
<glyph unicode="6" horiz-adv-x="1042" d="M88 553q0 171 44 314.5t120.5 244.5t180 171.5t222 104t246.5 33.5l31 -155q-100 0 -191 -21t-174 -68t-146 -116.5t-104.5 -172t-52.5 -229.5h10q100 150 293 150q76 0 143 -24t121 -70.5t85.5 -124t31.5 -176.5q0 -196 -122.5 -315t-315.5 -119q-200 0 -311 151 t-111 422zM287 397q0 -118 59.5 -187t169.5 -69q108 0 175 69.5t67 197.5q0 123 -66 183t-176 60q-105 0 -167 -71t-62 -183z" />
<glyph unicode="7" horiz-adv-x="1042" d="M100 1020h865v-164l-650 -1251l-194 24l645 1223h-639z" />
<glyph unicode="8" horiz-adv-x="1042" d="M98 356q0 123 79.5 222t205.5 151q-128 68 -188 151t-60 195q0 145 107 245.5t284 100.5q185 0 284 -93t99 -234q0 -111 -68.5 -212t-181.5 -139q143 -76 215 -165.5t72 -221.5q0 -165 -122.5 -270.5t-315.5 -105.5q-202 0 -306 104.5t-104 271.5zM285 373 q0 -108 59.5 -171t167.5 -63q114 0 180 65.5t66 164.5q0 149 -250 282q-93 -40 -158 -114.5t-65 -163.5zM313 1065q0 -132 219 -244q89 32 145 100.5t56 143.5q0 84 -53.5 142.5t-153.5 58.5q-96 0 -154.5 -55.5t-58.5 -145.5z" />
<glyph unicode="9" horiz-adv-x="1042" d="M84 606q0 196 122.5 315t315.5 119q200 0 311 -151t111 -422q0 -171 -44 -314.5t-120.5 -244.5t-180 -171.5t-222 -104t-246.5 -33.5l-31 155q126 0 237 34.5t204.5 105t153.5 190t73 276.5h-10q-99 -149 -293 -149q-76 0 -143 24t-121 70.5t-85.5 124t-31.5 176.5z M274 612q0 -123 66 -183t176 -60q105 0 167 71t62 183q0 118 -59.5 187t-169.5 69q-108 0 -175 -69.5t-67 -197.5z" />
<glyph unicode=":" horiz-adv-x="380" d="M74 768q0 47 33.5 81t80.5 34t82 -34t35 -81t-35 -81t-82 -34t-80.5 34t-33.5 81zM76 94q0 47 33.5 81t80.5 34t82 -34t35 -81t-34.5 -80.5t-82.5 -33.5q-47 0 -80.5 33.5t-33.5 80.5z" />
<glyph unicode=";" horiz-adv-x="380" d="M-41 -356q118 185 158.5 304.5t48.5 225.5l205 -12q-18 -127 -76.5 -261t-192.5 -302zM74 768q0 47 33.5 81t80.5 34t82 -34t35 -81t-35 -81t-82 -34t-80.5 34t-33.5 81z" />
<glyph unicode="&#x3c;" d="M78 500l586 426h237l-588 -420l592 -440h-243z" />
<glyph unicode="=" d="M113 229v146h805v-146h-805zM113 627v143h805v-143h-805z" />
<glyph unicode="&#x3e;" d="M117 926h243l584 -434l-586 -426h-237l588 419z" />
<glyph unicode="?" horiz-adv-x="788" d="M70 1356q112 65 284 65q81 0 150.5 -21t124.5 -63t87 -111.5t32 -160.5q0 -151 -114 -264t-306 -158l10 -270h-129l-84 379q101 15 176.5 37t136 57.5t92 87.5t31.5 121q0 103 -61.5 154t-159.5 51q-70 0 -137.5 -22t-108.5 -56zM160 94q0 47 33.5 81t80.5 34t82 -34 t35 -81t-34.5 -80.5t-82.5 -33.5q-47 0 -80.5 33.5t-33.5 80.5z" />
<glyph unicode="@" horiz-adv-x="1746" d="M102 430q0 230 104.5 413.5t286.5 285.5t406 102t391 -81t261 -243.5t94 -388.5q0 -215 -109.5 -350t-265.5 -135q-77 0 -140 25t-92 75q-83 -51 -140 -72.5t-126 -21.5q-102 0 -162.5 60t-60.5 147q0 73 35 130.5t96 94.5l342 27v104q0 71 -32.5 102t-100.5 31 q-109 0 -232 -78l-47 117q84 62 157.5 83.5t160.5 21.5q117 0 186.5 -61t69.5 -197q0 -9 -1 -171.5t-1 -189.5q0 -110 106 -110q101 0 164.5 107t63.5 261q0 294 -164 448t-455 154q-303 0 -483.5 -189.5t-180.5 -494.5q0 -152 46 -273.5t125.5 -197t183 -115.5t221.5 -40 q67 0 147.5 11t130.5 29l13 -116q-110 -37 -299 -37q-145 0 -272.5 51.5t-222 144.5t-149.5 232t-55 305zM717 289q0 -55 33.5 -85t93.5 -30q78 0 176 66v143l-283 -23q-20 -27 -20 -71z" />
<glyph unicode="A" horiz-adv-x="1345" d="M45 0l543 1397h168l542 -1389l-198 -16l-168 444h-533l-163 -436h-191zM463 604h407l-178 473q-17 42 -20 86h-10q-7 -44 -21 -86z" />
<glyph unicode="B" horiz-adv-x="1196" d="M199 0v1397h98q191 10 289 10q197 0 313.5 -93t116.5 -257q0 -112 -63 -204.5t-171 -119.5v-8q150 -23 236 -117.5t86 -226.5q0 -175 -123 -283t-340 -108l-330 10h-112zM383 154q101 -9 233 -9q134 0 210.5 61.5t76.5 170.5q0 112 -87 180t-275 68h-158v-471zM383 782 h147q295 0 295 242q0 108 -71 170.5t-199 62.5q-102 0 -172 -4v-471z" />
<glyph unicode="C" horiz-adv-x="1366" d="M92 674q0 150 42 275.5t112 211t163 145.5t193 87.5t203 27.5q260 0 446 -94l-55 -182q-72 43 -178 71.5t-211 28.5q-102 0 -190 -31.5t-161.5 -97t-116 -179t-42.5 -263.5q0 -105 30 -192t81 -146.5t119.5 -100.5t143.5 -60t154 -19q102 0 212 36t186 84l49 -184 q-88 -50 -212.5 -81t-264.5 -31q-138 0 -264 47.5t-224 134t-156.5 219.5t-58.5 293z" />
<glyph unicode="D" horiz-adv-x="1495" d="M199 0v1397h100q256 14 371 14q217 0 382.5 -80t259 -236.5t93.5 -369.5q0 -179 -53 -321t-148 -232.5t-223.5 -138t-282.5 -47.5q-49 0 -147 3.5t-171 6.5l-73 4h-108zM389 164q165 -12 293 -12q234 0 377 150t143 400q0 136 -43.5 242t-118.5 171t-172 98.5t-209 33.5 q-133 0 -270 -10v-1073z" />
<glyph unicode="E" horiz-adv-x="1163" d="M199 0v1397h802l-10 -172h-600v-420h545v-172h-545v-463h656l-11 -170h-837z" />
<glyph unicode="F" horiz-adv-x="1093" d="M199 0v1397h800l-20 -170h-588v-502h551v-174h-551v-551h-192z" />
<glyph unicode="G" horiz-adv-x="1478" d="M92 682q0 145 41 268t110 208.5t160.5 145.5t192.5 88.5t205 28.5q258 0 487 -98l-59 -186q-77 44 -192.5 76t-219.5 32q-77 0 -148 -17t-140 -58t-119.5 -103.5t-81.5 -160t-31 -220.5q0 -128 44 -230.5t120.5 -167.5t177.5 -99.5t217 -34.5q61 0 142.5 14.5t127.5 30.5 v403h195v-530q-104 -41 -239 -66.5t-271 -25.5q-146 0 -276.5 48t-229 136t-156 222t-57.5 296z" />
<glyph unicode="H" horiz-adv-x="1523" d="M199 0v1397h192v-582h742v582h192v-1397h-192v641h-742v-641h-192z" />
<glyph unicode="I" horiz-adv-x="589" d="M199 0v1397h192v-1397h-192z" />
<glyph unicode="J" horiz-adv-x="612" d="M-66 -231q140 31 213.5 107.5t73.5 215.5v1305h193v-1317q0 -410 -432 -488z" />
<glyph unicode="K" horiz-adv-x="1366" d="M199 0v1397h192v-641l692 657l232 -24l-635 -596l663 -791l-225 -22l-571 686l-156 -140v-526h-192z" />
<glyph unicode="L" horiz-adv-x="1075" d="M199 0v1397h192v-1225h637l-12 -172h-817z" />
<glyph unicode="M" horiz-adv-x="1853" d="M145 0l109 1397h197l430 -1061q19 -52 22 -98h15q8 44 28 98l477 1061h193l92 -1391l-188 -12l-60 991q-2 20 -2 90h-10q-11 -63 -27 -102l-440 -973h-160l-385 971q-20 47 -26 104h-11q0 -67 -2 -92l-78 -983h-174z" />
<glyph unicode="N" horiz-adv-x="1603" d="M199 0v1397h211l761 -1010q36 -52 52 -94h8q-4 70 -4 96v1008h178v-1395l-162 -22l-809 1077q-38 51 -51 92h-10q4 -54 4 -88v-1061h-178z" />
<glyph unicode="O" horiz-adv-x="1613" d="M92 670q0 141 39 263t107.5 210.5t161 151.5t201 94.5t226.5 31.5q137 0 263 -49t222.5 -136.5t154 -220.5t57.5 -290q0 -175 -61.5 -318.5t-165 -235.5t-237 -141.5t-280.5 -49.5q-131 0 -254 47.5t-220 133.5t-155.5 219t-58.5 290zM297 698q0 -130 38.5 -234.5 t106.5 -172t160 -103.5t199 -36q225 0 371.5 156.5t146.5 396.5q0 133 -41.5 239t-112 171.5t-159.5 99.5t-189 34q-103 0 -196 -36.5t-165.5 -104t-115.5 -174t-43 -236.5z" />
<glyph unicode="P" horiz-adv-x="1155" d="M199 0v1397h106q201 12 297 12q222 0 343.5 -109t121.5 -303q0 -113 -43.5 -202.5t-116 -142.5t-158.5 -80t-178 -27q-59 0 -96 4l-22 174q43 -6 92 -6q51 0 97 8.5t89 29t74 50.5t50 77t19 105q0 125 -77 190.5t-222 65.5q-36 0 -103 -3t-83 -3v-1237h-190z" />
<glyph unicode="Q" horiz-adv-x="1613" d="M90 670q0 174 60 318.5t162 237.5t234.5 144t280.5 51q136 0 261.5 -49t222 -137t154 -220.5t57.5 -289.5q0 -268 -131.5 -444.5t-350.5 -251.5v-6l523 -304l-172 -94l-592 359h-21q-131 0 -253.5 47t-220 132t-156 217t-58.5 290zM295 698q0 -129 39 -233.5t107 -172 t159.5 -104t198.5 -36.5q224 0 371 157t147 396q0 134 -41 239.5t-111.5 170.5t-159 98.5t-188.5 33.5q-104 0 -198 -37t-166.5 -105t-115 -173.5t-42.5 -233.5z" />
<glyph unicode="R" horiz-adv-x="1228" d="M199 0v1397h104q250 12 313 12q201 0 318 -103t117 -284q0 -147 -78.5 -245.5t-204.5 -137.5v-8l481 -615l-209 -39l-462 607h-191v-584h-188zM387 745h178q140 0 214.5 71t74.5 192q0 117 -76 177t-211 60q-39 0 -180 -6v-494z" />
<glyph unicode="S" horiz-adv-x="1083" d="M100 82l62 180q65 -49 169 -79.5t195 -30.5q106 0 178 53t72 145q0 48 -22 90t-59.5 75t-86 64.5t-101.5 60.5t-106.5 59.5t-102 66t-86 75.5t-59.5 93t-22 113q0 116 62 202.5t163.5 129t227.5 42.5q180 0 340 -45l-35 -184q-133 59 -299 59q-120 0 -191 -42.5 t-71 -131.5q0 -54 36 -101.5t93 -85t126 -75t138.5 -80t126.5 -91.5t93 -119t36 -152q0 -178 -126.5 -285.5t-334.5 -107.5q-115 0 -233 29.5t-183 72.5z" />
<glyph unicode="T" horiz-adv-x="1181" d="M29 1397h1124l-8 -172h-457v-1225h-194v1225h-457z" />
<glyph unicode="U" horiz-adv-x="1472" d="M180 469v928h193v-903q0 -151 93 -242.5t273 -91.5q174 0 265.5 96t91.5 240v901h196v-928q0 -210 -154.5 -349.5t-398.5 -139.5q-262 0 -410.5 123t-148.5 366z" />
<glyph unicode="V" horiz-adv-x="1320" d="M55 1391l199 18l391 -1098q15 -47 19 -78h12q5 43 18 78l375 1086h197l-498 -1397h-209z" />
<glyph unicode="W" horiz-adv-x="2125" d="M66 1391l196 16l303 -1055q13 -49 17 -84h12q3 31 20 82l369 1047h201l340 -1045q14 -48 20 -84h10q3 33 17 84l299 1045h192l-413 -1397h-199l-346 1077q-20 77 -21 88h-10q-3 -29 -22 -90l-379 -1075h-197z" />
<glyph unicode="X" horiz-adv-x="1400" d="M55 0l533 721l-488 651l205 41l410 -565l383 549h221l-490 -664l519 -717l-213 -28l-426 608l-433 -596h-221z" />
<glyph unicode="Y" horiz-adv-x="1241" d="M41 1389l211 16l356 -635q18 -37 25 -70h16q7 39 25 72l325 625h203l-465 -877v-520h-192v520z" />
<glyph unicode="Z" horiz-adv-x="1374" d="M96 154l881 1071h-799l-8 172h1034l29 -142l-891 -1083h887l12 -172h-1128z" />
<glyph unicode="[" horiz-adv-x="649" d="M215 -526v1964h426v-158h-238v-1649h238v-157h-426z" />
<glyph unicode="\" horiz-adv-x="751" d="M-37 1448h197l637 -1448h-193z" />
<glyph unicode="]" horiz-adv-x="649" d="M8 -369h238v1649h-238v158h426v-1964h-426v157z" />
<glyph unicode="^" d="M139 555l291 610h127l297 -610l-123 -12l-237 477l-236 -477z" />
<glyph unicode="_" d="M0 -70h1024v-141h-1024v141z" />
<glyph unicode="`" d="M258 1421h205l170 -403h-125z" />
<glyph unicode="a" horiz-adv-x="933" d="M92 217q0 79 41 142t109 102l360 31v122q0 80 -37.5 115t-115.5 35q-114 0 -244 -88l-51 131q88 69 170.5 94t177.5 25q276 0 276 -291q0 -15 -3 -191t-3 -188q0 -24 21 -96l43 -135l-170 -45l-35 100q-99 -58 -167.5 -79t-131.5 -21q-114 0 -177 68.5t-63 168.5z M274 254q0 -129 125 -129q78 0 199 68l2 176l-303 -31q-8 -12 -15.5 -39.5t-7.5 -44.5z" />
<glyph unicode="b" horiz-adv-x="1110" d="M172 74v1368l184 20v-622q118 86 265 86q177 0 287 -118t110 -323q0 -119 -40.5 -216.5t-107.5 -159.5t-152 -95.5t-177 -33.5q-101 0 -203.5 23.5t-165.5 70.5zM356 184q73 -41 179 -41q56 0 105.5 18t91.5 55.5t66.5 103.5t24.5 153q0 144 -75 219.5t-195 75.5 q-93 0 -197 -70v-514z" />
<glyph unicode="c" horiz-adv-x="917" d="M92 453q0 147 63.5 256t166.5 163t229 54q168 0 285 -60l-52 -161q-43 25 -105 41t-120 16q-118 0 -195 -80t-77 -236q0 -132 74 -217.5t202 -85.5q71 0 136 31t106 74l76 -127q-132 -141 -344 -141q-205 0 -325 128.5t-120 344.5z" />
<glyph unicode="d" horiz-adv-x="1103" d="M92 428q0 97 27.5 179.5t73.5 139t105 97t122 59.5t125 19q136 0 205 -27v547l184 20v-1247q0 -78 18 -215l-172 -12l-12 110q-113 -118 -272 -118q-81 0 -153 28.5t-128.5 83t-89.5 141t-33 195.5zM289 451q0 -154 70.5 -233t191.5 -79q58 0 111 27t88 70v489 q-75 43 -170 43q-57 0 -107 -18t-92.5 -54.5t-67 -99.5t-24.5 -145z" />
<glyph unicode="e" horiz-adv-x="980" d="M92 442q0 117 38.5 212t101.5 153t137.5 88.5t152.5 30.5q172 0 265.5 -96t93.5 -244q0 -69 -9 -148h-587q-2 -8 -2 -14q0 -121 75 -201t205 -80q133 0 252 111l74 -121q-60 -72 -151 -112.5t-199 -40.5q-86 0 -164.5 29t-142.5 84t-102 145.5t-38 203.5zM297 565h399v41 q0 77 -48 126.5t-132 49.5q-93 0 -151.5 -61t-67.5 -156z" />
<glyph unicode="f" horiz-adv-x="727" d="M57 737v158h164v96q0 121 31 216t85 152t121 86.5t144 29.5q40 0 107 -9l-19 -172q-29 4 -74 4q-210 0 -210 -243v-160h274v-158h-274v-737h-185v737h-164z" />
<glyph unicode="g" horiz-adv-x="1003" d="M18 -213q0 88 54.5 144t134.5 79q-67 23 -103 69t-36 105q0 68 39 114.5t133 88.5q-37 32 -58.5 90t-21.5 123q0 141 95.5 233.5t240.5 92.5q72 0 143 -23h291v-129h-150v-8q58 -65 58 -162q0 -146 -92.5 -235.5t-249.5 -89.5q-87 0 -146 32q-64 -26 -89 -48t-25 -50 q0 -35 30.5 -54t104.5 -30l491 -72q78 -107 78 -219q0 -164 -130 -274.5t-339 -110.5q-210 0 -331.5 90.5t-121.5 243.5zM197 -186q0 -96 72.5 -151.5t209.5 -55.5q131 0 206 61t75 160q0 47 -17 82l-434 61q-47 -14 -79.5 -57t-32.5 -100zM330 602q0 -82 45.5 -132 t120.5 -50q77 0 123.5 49.5t46.5 132.5q0 85 -47 138t-123 53q-77 0 -121.5 -52.5t-44.5 -138.5z" />
<glyph unicode="h" horiz-adv-x="1110" d="M172 0v1442l184 20v-649q126 113 275 113q313 0 313 -346v-580h-184v553q0 213 -187 213q-119 0 -217 -78v-688h-184z" />
<glyph unicode="i" horiz-adv-x="528" d="M166 1249q0 41 28.5 70t69.5 29t69.5 -29t28.5 -70t-28.5 -70.5t-69.5 -29.5t-69.5 29.5t-28.5 70.5zM172 0v895l184 14v-909h-184z" />
<glyph unicode="j" horiz-adv-x="536" d="M-18 -428q89 50 143.5 143.5t54.5 229.5v950l185 14v-975q0 -169 -73 -294t-222 -191zM174 1249q0 42 27.5 70.5t68.5 28.5t71 -29t30 -70t-30 -70.5t-71 -29.5t-68.5 29t-27.5 71z" />
<glyph unicode="k" horiz-adv-x="1044" d="M172 0v1442l184 20v-952l445 405l211 -22l-412 -363q89 -98 207 -246.5t209 -277.5l-209 -20q-160 225 -336 428l-115 -107v-307h-184z" />
<glyph unicode="l" horiz-adv-x="528" d="M172 0v1442l184 20v-1462h-184z" />
<glyph unicode="m" horiz-adv-x="1619" d="M172 0v895l178 16v-102q122 117 271 117q178 0 243 -125q81 75 152 100t151 25q141 0 214 -81t73 -265v-580h-184v553q0 213 -176 213q-52 0 -104 -25t-83 -57v-684h-184v553q0 213 -170 213q-53 0 -107.5 -24.5t-89.5 -55.5v-686h-184z" />
<glyph unicode="n" horiz-adv-x="1110" d="M172 0v895l178 16v-102q122 117 277 117q317 0 317 -346v-580h-184v553q0 213 -187 213q-119 0 -217 -78v-688h-184z" />
<glyph unicode="o" horiz-adv-x="1122" d="M92 430q0 150 67 264.5t177 173t242 58.5q191 0 321.5 -124t130.5 -331q0 -113 -39 -207t-106 -155.5t-155 -95t-187 -33.5q-192 0 -321.5 126t-129.5 324zM287 455q0 -139 78 -226.5t194 -87.5q125 0 201 89t76 227q0 143 -79.5 227t-193.5 84q-119 0 -197.5 -83.5 t-78.5 -229.5z" />
<glyph unicode="p" horiz-adv-x="1110" d="M172 -526v1421l184 16v-96q63 60 128 85.5t145 25.5q175 0 282 -120t107 -325q0 -118 -41 -216t-107 -158.5t-145.5 -93.5t-161.5 -33q-129 0 -207 45v-551h-184zM356 193q66 -52 170 -52q137 0 216 86t79 248q0 146 -73.5 220.5t-192.5 74.5q-61 0 -114 -30.5t-85 -75.5 v-471z" />
<glyph unicode="q" horiz-adv-x="1110" d="M92 426q0 118 39.5 215.5t104.5 158t145.5 93.5t165.5 33q93 0 202 -21t189 -53v-1378h-184v602q-117 -94 -262 -94q-174 0 -287 119t-113 325zM287 438q0 -149 72 -224t186 -75q60 0 119 21.5t90 52.5v520q-80 35 -185 35q-120 0 -201 -83t-81 -247z" />
<glyph unicode="r" horiz-adv-x="718" d="M172 0v895l178 16v-149q29 54 62 89t69.5 50.5t64.5 20t66 4.5q42 0 76 -11l-20 -182q-61 21 -123 21q-58 0 -104.5 -36.5t-84.5 -121.5v-596h-184z" />
<glyph unicode="s" horiz-adv-x="804" d="M102 33l25 166q46 -27 126 -45.5t142 -18.5t95.5 24t33.5 68q0 33 -22.5 61.5t-58.5 50.5t-80 44t-87.5 48t-79.5 56.5t-58.5 75.5t-22.5 99q0 110 101.5 187t262.5 77q102 0 207 -25l-22 -164q-91 33 -222 33q-73 0 -108 -24.5t-35 -65.5q0 -29 22.5 -55t59 -47t80 -43 t87 -48.5t80 -58t59 -77.5t22.5 -101q0 -111 -94.5 -190.5t-239.5 -79.5q-181 0 -273 53z" />
<glyph unicode="t" horiz-adv-x="757" d="M61 737v158h156v209l184 33v-242h269v-158h-275v-428q0 -92 35 -129t109 -37t153 33l21 -149q-40 -23 -101 -35t-116 -12q-285 0 -285 305v452h-150z" />
<glyph unicode="u" horiz-adv-x="1097" d="M168 315v578l184 18v-577q0 -107 46 -148t130 -41q120 0 220 107v641l184 18v-718q0 -94 18 -189l-180 -18l-12 110q-79 -67 -147 -91.5t-146 -24.5q-297 0 -297 335z" />
<glyph unicode="v" horiz-adv-x="962" d="M29 891l194 20l226 -598q15 -40 22 -88h10q4 27 27 88l231 590h201l-383 -903h-180z" />
<glyph unicode="w" horiz-adv-x="1568" d="M72 891l190 20l178 -600q13 -39 19 -80h10q5 32 23 80l219 592h168l192 -592q17 -52 19 -80h10q8 45 20 80l201 592h195l-342 -903h-179l-186 561q-19 61 -23 90h-10q-8 -43 -26 -92l-211 -559h-179z" />
<glyph unicode="x" horiz-adv-x="1009" d="M43 0l348 461l-317 434l221 12l217 -327l225 323h213l-319 -430l332 -461l-205 -26l-250 360l-250 -346h-215z" />
<glyph unicode="y" horiz-adv-x="989" d="M10 -412q121 47 217.5 143.5t175.5 268.5h-32l-322 891l195 20l223 -663q21 -66 25 -88h10q5 31 26 88l238 655h201l-328 -821q-204 -515 -516 -633z" />
<glyph unicode="z" horiz-adv-x="935" d="M63 125l549 618h-479l-12 160h715l12 -123l-551 -620h516l27 -160h-768z" />
<glyph unicode="{" horiz-adv-x="614" d="M63 371v161q139 0 200 23t61 88q0 38 -33 101.5t-72.5 122t-72.5 132.5t-33 131q0 160 105 235t284 75q48 0 98 -6v-142q-16 2 -59 2q-50 0 -88.5 -6t-74 -22t-54.5 -48t-19 -79q0 -53 32.5 -122t72 -125.5t72 -124.5t32.5 -120q0 -82 -50.5 -134t-166.5 -56v-13 q217 -8 217 -194q0 -40 -21.5 -91.5t-52 -101t-61.5 -99.5t-52.5 -103t-21.5 -97q0 -45 18.5 -76.5t53 -47.5t74.5 -22.5t92 -6.5q25 0 57 4v-144q-31 -4 -98 -4q-186 0 -287.5 74.5t-101.5 228.5q0 55 33 130.5t72.5 136.5t72.5 126t33 103q0 66 -60 88.5t-201 22.5z" />
<glyph unicode="|" horiz-adv-x="579" d="M199 -526v1974h184v-1974h-184z" />
<glyph unicode="}" horiz-adv-x="614" d="M16 -393q16 -2 60 -2q50 0 88.5 6t73.5 22t54 48t19 79q0 53 -32.5 122t-72 125.5t-72 124.5t-32.5 120q0 82 50.5 134t166.5 56v13q-217 8 -217 194q0 40 21.5 91.5t52 101t61.5 99.5t52.5 103t21.5 97q0 86 -64 119.5t-173 33.5q-26 0 -58 -4v144q29 4 99 4 q186 0 287.5 -74.5t101.5 -228.5q0 -55 -33 -130.5t-72.5 -136.5t-72.5 -126t-33 -103q0 -66 60 -88.5t200 -22.5v-161q-140 0 -200 -23t-60 -88q0 -38 33 -101.5t72.5 -122t72.5 -132.5t33 -131q0 -160 -105 -235t-284 -75q-49 0 -99 6v142z" />
<glyph unicode="~" d="M109 334q76 248 219 248q46 0 189.5 -65.5t178.5 -65.5q68 0 119 155l100 -31q-26 -126 -80 -191t-128 -65q-48 0 -127.5 32.5t-150.5 65t-97 32.5q-70 0 -129 -152z" />
<glyph unicode="&#xa1;" horiz-adv-x="512" d="M139 807q0 47 35 81t82 34t81 -34t34 -81t-34 -81t-81 -34t-82 34t-35 81zM154 -496l41 1024h122l39 -1024h-202z" />
<glyph unicode="&#xa2;" horiz-adv-x="1042" d="M94 688q0 123 35.5 220.5t96.5 158.5t133.5 96.5t154.5 46.5v211h170v-209q101 -8 213 -57l-47 -162q-91 54 -240 54q-156 0 -245 -87.5t-89 -271.5q0 -165 86 -245.5t232 -80.5q61 0 132.5 15.5t123.5 44.5l51 -160q-100 -51 -217 -61v-221h-170v219q-88 10 -162.5 44.5 t-133 93t-91.5 148.5t-33 203z" />
<glyph unicode="&#xa3;" horiz-adv-x="1042" d="M111 612v148h127q-46 104 -68.5 175t-22.5 142q0 149 102 246.5t283 97.5q185 0 328 -67l-51 -160q-53 31 -126.5 50.5t-137.5 19.5q-110 0 -161.5 -55.5t-51.5 -145.5q0 -16 2.5 -33t9.5 -40t11.5 -37.5t17.5 -45.5t18.5 -43.5t23.5 -52t23 -51.5h430v-148h-368 q49 -119 49 -198q0 -182 -123 -260h514v-154h-825v133q105 0 182.5 64.5t77.5 183.5q0 45 -17 95.5t-55 135.5h-192z" />
<glyph unicode="&#xa4;" horiz-adv-x="1042" d="M82 106l106 111q-86 106 -86 262q0 153 82 266l-100 109l102 92l97 -110q110 77 237 77q130 0 240 -75l98 112l103 -92l-105 -108q84 -112 84 -261q0 -159 -92 -274l110 -111l-100 -94l-104 117q-106 -72 -234 -72q-131 0 -235 72l-103 -115zM256 487q0 -128 74 -208 t184 -80t191 81.5t81 206.5t-77.5 204t-186.5 79q-106 0 -186 -79.5t-80 -203.5z" />
<glyph unicode="&#xa5;" horiz-adv-x="1042" d="M27 1391l213 16l258 -584q7 -15 22 -61h12q6 28 21 61l260 574h205l-363 -754h258v-164h-295v-479h-192v479h-295v164h258z" />
<glyph unicode="&#xa6;" horiz-adv-x="579" d="M199 289h184v-815h-184v815zM199 637v811h184v-811h-184z" />
<glyph unicode="&#xa7;" horiz-adv-x="1042" d="M106 707q0 104 59 176.5t161 107.5q-56 59 -56 144q0 90 51.5 156.5t129.5 98t170 31.5q117 0 196 -20l-26 -160q-92 29 -211 29q-140 0 -140 -92q0 -52 51.5 -96t124.5 -79.5t146 -74.5t124.5 -99t51.5 -135q0 -204 -219 -284q55 -55 55 -144q0 -128 -98 -207t-254 -79 q-36 0 -101.5 6t-93.5 14l27 162q89 -31 201 -31q74 0 111.5 24.5t37.5 67.5q0 52 -51.5 96t-124.5 79.5t-146 74.5t-124.5 99t-51.5 135zM283 739q0 -33 24.5 -65t65.5 -58.5t81 -47.5t86.5 -43t65.5 -33q67 14 111.5 59.5t44.5 110.5q0 42 -41 83t-88.5 66t-111 55.5 t-83.5 42.5q-66 -13 -110.5 -59t-44.5 -111z" />
<glyph unicode="&#xa8;" d="M246 1239q0 41 27.5 68.5t68.5 27.5t69.5 -27.5t28.5 -68.5q0 -42 -28.5 -72t-69.5 -30t-68.5 30t-27.5 72zM582 1239q0 41 28.5 68.5t69.5 27.5t69.5 -27.5t28.5 -68.5q0 -42 -28.5 -72t-69.5 -30t-69.5 30t-28.5 72z" />
<glyph unicode="&#xa9;" horiz-adv-x="1554" d="M113 700q0 184 88 336.5t240.5 240t336.5 87.5q138 0 261 -51.5t211.5 -140t140 -211.5t51.5 -261q0 -184 -87.5 -336t-240 -239.5t-336.5 -87.5t-336.5 87.5t-240.5 239.5t-88 336zM211 700q0 -159 74 -290.5t204.5 -207t288.5 -75.5t288.5 75.5t205 207t74.5 290.5 t-74.5 290.5t-205 207.5t-288.5 76t-288.5 -76t-204.5 -207.5t-74 -290.5zM406 698q0 80 24 147.5t63.5 113.5t92 78.5t108.5 47.5t113 15q142 0 244 -47l-23 -123q-96 47 -207 47q-53 0 -99 -14.5t-85.5 -45.5t-62.5 -87t-23 -132q0 -65 23.5 -115t64 -78t88 -42t100.5 -14 q56 0 116.5 16.5t98.5 40.5l21 -123q-98 -57 -268 -57q-161 0 -275 101t-114 271z" />
<glyph unicode="&#xaa;" horiz-adv-x="731" d="M117 1012q0 96 90 153l239 17v37q0 51 -24 72.5t-78 21.5q-71 0 -151 -53l-33 94q99 67 221 67q86 0 138 -43.5t52 -138.5q0 -8 -1 -99.5t-1 -99.5q0 -33 6 -53l25 -100l-127 -23l-12 49q-102 -51 -178 -51q-81 0 -123.5 43.5t-42.5 106.5zM248 1026q0 -65 78 -65 q55 0 118 34l2 103l-182 -15q-16 -19 -16 -57z" />
<glyph unicode="&#xab;" horiz-adv-x="933" d="M51 438v54l328 387l141 -50l-280 -358l280 -416l-141 -49zM414 438v54l327 387l142 -50l-281 -358l281 -416l-142 -49z" />
<glyph unicode="&#xac;" d="M82 590v155h846v-516h-156v361h-690z" />
<glyph unicode="&#xad;" horiz-adv-x="653" d="M76 446v144h504v-144h-504z" />
<glyph unicode="&#xae;" horiz-adv-x="1554" d="M113 700q0 184 88 336.5t240.5 240t336.5 87.5q138 0 261 -51.5t211.5 -140t140 -211.5t51.5 -261q0 -184 -87.5 -336t-240 -239.5t-336.5 -87.5t-336.5 87.5t-240.5 239.5t-88 336zM211 700q0 -159 74 -290.5t204.5 -207t288.5 -75.5t288.5 75.5t205 207t74.5 290.5 t-74.5 290.5t-205 207.5t-288.5 76t-288.5 -76t-204.5 -207.5t-74 -290.5zM522 338v749h70q153 7 190 7q118 0 187 -58.5t69 -161.5q0 -79 -44 -131.5t-115 -72.5v-6l243 -312l-137 -22l-229 299h-109v-291h-125zM647 739h88q172 0 172 123q0 65 -41 94t-121 29 q-40 0 -98 -4v-242z" />
<glyph unicode="&#xaf;" d="M242 1143v133h536v-133h-536z" />
<glyph unicode="&#xb0;" horiz-adv-x="663" d="M63 1161q0 121 78 196t199 75q113 0 186.5 -70t73.5 -180q0 -123 -78.5 -195t-197.5 -72q-108 0 -184.5 69t-76.5 177zM190 1178q0 -71 39.5 -112.5t100.5 -41.5q66 0 103.5 41.5t37.5 110.5q0 73 -39.5 113t-97.5 40q-63 0 -103.5 -38.5t-40.5 -112.5z" />
<glyph unicode="&#xb1;" d="M127 0v141h772v-141h-772zM127 500v143h309v301h150v-301h313v-143h-313v-299h-150v299h-309z" />
<glyph unicode="&#xb2;" horiz-adv-x="835" d="M74 524v121q142 94 236 170t140 133t63 97.5t17 82.5q0 76 -45.5 118t-136.5 42q-56 0 -115 -17.5t-94 -41.5l-22 145q110 49 252 49q141 0 232 -71t91 -203q0 -56 -14 -103t-54 -105.5t-117.5 -127.5t-197.5 -154h428l-12 -135h-651z" />
<glyph unicode="&#xb3;" horiz-adv-x="835" d="M106 643q221 0 333 37t112 121q0 63 -39.5 90t-140.5 27h-170v129h116q106 0 154.5 27.5t48.5 92.5q0 64 -40 92.5t-126 28.5q-108 0 -196 -43l-17 135q100 41 244 41q132 0 209.5 -60.5t77.5 -164.5q0 -62 -33.5 -109.5t-93.5 -74.5v-8q172 -40 172 -191 q0 -146 -150 -224.5t-440 -78.5z" />
<glyph unicode="&#xb4;" d="M424 1018l170 403h205l-252 -403h-123z" />
<glyph unicode="&#xb5;" horiz-adv-x="1126" d="M180 -526v1419l185 18v-577q0 -107 47.5 -148t132.5 -41q119 0 223 107v641l184 18v-739q0 -81 17 -168l-176 -18l-15 110q-135 -116 -258 -116q-115 0 -158 51v-557h-182z" />
<glyph unicode="&#xb6;" horiz-adv-x="1042" d="M59 909q0 130 39.5 231t106 161t147 90t170.5 30q204 0 375 -67v-1354h-119v1214q-7 3 -38 11t-38 10v-1235h-118v1247q-30 6 -58 6q-276 0 -276 -331q0 -132 54 -197.5t142 -65.5q49 0 84 21l13 -156q-55 -30 -148 -30q-66 0 -124.5 24.5t-107 72.5t-76.5 130t-28 188z " />
<glyph unicode="&#xb7;" horiz-adv-x="442" d="M106 489q0 47 34 81t81 34t82 -34t35 -81t-34.5 -80.5t-82.5 -33.5q-47 0 -81 33.5t-34 80.5z" />
<glyph unicode="&#xb8;" d="M315 -424l29 113q56 -27 109 -27q40 0 66 22.5t26 65.5q0 47 -34 73.5t-87 29.5l18 92q42 0 82 -11t75.5 -33.5t57 -63.5t21.5 -95q0 -95 -65 -148t-148 -53q-82 0 -150 35z" />
<glyph unicode="&#xb9;" horiz-adv-x="835" d="M150 524v135h245v617l-215 -41l-20 125l241 53h144v-754h194l-12 -135h-577z" />
<glyph unicode="&#xba;" horiz-adv-x="731" d="M78 1128q0 135 83 214t214 79q122 0 201 -72.5t79 -195.5q0 -137 -85 -214t-214 -77q-119 0 -198.5 73.5t-79.5 192.5zM217 1139q0 -81 42 -123.5t106 -42.5q70 0 110.5 46t40.5 126q0 83 -42.5 124.5t-106.5 41.5q-65 0 -107.5 -42.5t-42.5 -129.5z" />
<glyph unicode="&#xbb;" horiz-adv-x="933" d="M51 55l281 359l-281 415l142 50l327 -433v-53l-327 -387zM414 55l280 359l-280 415l141 50l328 -433v-53l-328 -387z" />
<glyph unicode="&#xbc;" horiz-adv-x="2013" d="M150 524v135h245v617l-215 -41l-20 125l241 53h144v-754h194l-12 -135h-577zM537 0l778 1397h158l-775 -1397h-161zM1251 344l402 563l151 -18l-399 -547h262v252h141v-252h127v-129h-127v-213h-141v213h-403z" />
<glyph unicode="&#xbd;" horiz-adv-x="2013" d="M150 524v135h245v617l-215 -41l-20 125l241 53h144v-754h194l-12 -135h-577zM537 0l778 1397h158l-775 -1397h-161zM1251 0v121q142 94 236.5 170t140.5 133t63 97.5t17 82.5q0 76 -45.5 118t-136.5 42q-56 0 -115 -17.5t-94 -41.5l-23 145q110 49 252 49 q141 0 232.5 -71t91.5 -203q0 -56 -14 -103t-54 -105.5t-117.5 -127.5t-197.5 -154h428l-12 -135h-652z" />
<glyph unicode="&#xbe;" horiz-adv-x="2013" d="M106 643q221 0 333 37t112 121q0 63 -39.5 90t-140.5 27h-170v129h116q106 0 154.5 27.5t48.5 92.5q0 64 -40 92.5t-126 28.5q-108 0 -196 -43l-17 135q100 41 244 41q132 0 209.5 -60.5t77.5 -164.5q0 -62 -33.5 -109.5t-93.5 -74.5v-8q172 -40 172 -191 q0 -146 -150 -224.5t-440 -78.5zM537 0l778 1397h158l-775 -1397h-161zM1251 344l402 563l151 -18l-399 -547h262v252h141v-252h127v-129h-127v-213h-141v213h-403z" />
<glyph unicode="&#xbf;" horiz-adv-x="772" d="M6 -164q0 151 114 264t306 158l-10 270h129l84 -378q-100 -15 -176 -37.5t-136.5 -57.5t-92 -87.5t-31.5 -121.5q0 -103 61.5 -153.5t159.5 -50.5q70 0 137 22t108 55l25 -174q-112 -65 -285 -65q-81 0 -150 21t-124.5 63t-87 111.5t-31.5 160.5zM362 807q0 47 35 81 t82 34t81 -34t34 -81t-34 -81t-81 -34t-82 34t-35 81z" />
<glyph unicode="&#xc0;" horiz-adv-x="1345" d="M45 0l543 1397h168l542 -1389l-198 -16l-168 444h-533l-163 -436h-191zM356 1710h209l164 -235h-125zM463 604h407l-178 473q-17 42 -20 86h-10q-7 -44 -21 -86z" />
<glyph unicode="&#xc1;" horiz-adv-x="1345" d="M45 0l543 1397h168l542 -1389l-198 -16l-168 444h-533l-163 -436h-191zM463 604h407l-178 473q-17 42 -20 86h-10q-7 -44 -21 -86zM612 1475l162 235h211l-250 -235h-123z" />
<glyph unicode="&#xc2;" horiz-adv-x="1345" d="M45 0l543 1397h168l542 -1389l-198 -16l-168 444h-533l-163 -436h-191zM365 1485l253 241h132l233 -241l-123 -12l-180 145l-193 -145zM463 604h407l-178 473q-17 42 -20 86h-10q-7 -44 -21 -86z" />
<glyph unicode="&#xc3;" horiz-adv-x="1345" d="M45 0l543 1397h168l542 -1389l-198 -16l-168 444h-533l-163 -436h-191zM328 1532q33 105 81.5 153t116.5 48q36 0 96 -30.5t116.5 -61.5t86.5 -31q34 0 56.5 29.5t46.5 93.5l82 -29q-46 -211 -189 -211q-45 0 -108.5 31.5t-118.5 62.5t-80 31q-64 0 -115 -119zM463 604 h407l-178 473q-17 42 -20 86h-10q-7 -44 -21 -86z" />
<glyph unicode="&#xc4;" horiz-adv-x="1345" d="M45 0l543 1397h168l542 -1389l-198 -16l-168 444h-533l-163 -436h-191zM410 1573q0 41 27.5 68.5t68.5 27.5t69.5 -27.5t28.5 -68.5q0 -42 -28.5 -72.5t-69.5 -30.5t-68.5 30.5t-27.5 72.5zM463 604h407l-178 473q-17 42 -20 86h-10q-7 -44 -21 -86zM745 1573 q0 41 28.5 68.5t70.5 27.5q41 0 69.5 -27.5t28.5 -68.5q0 -42 -28.5 -72.5t-69.5 -30.5t-70 30.5t-29 72.5z" />
<glyph unicode="&#xc5;" horiz-adv-x="1345" d="M45 0l528 1360q-47 22 -74.5 65.5t-27.5 100.5q0 90 59 145t150 55q84 0 140.5 -52t56.5 -134q0 -122 -109 -176l530 -1356l-198 -16l-168 444h-533l-163 -436h-191zM463 604h407l-178 473q-17 42 -20 86h-10q-7 -44 -21 -86zM573 1534q0 -48 28.5 -75t70.5 -27 q46 0 72 28.5t26 75.5q0 50 -27.5 76t-68.5 26q-44 0 -72.5 -27t-28.5 -77z" />
<glyph unicode="&#xc6;" horiz-adv-x="1771" d="M45 0l619 1397h946l-11 -172h-600v-420h545v-172h-545v-463h656l-10 -170h-834v588h-309l-271 -606zM567 756h244v506h-20z" />
<glyph unicode="&#xc7;" horiz-adv-x="1366" d="M92 674q0 150 42 275.5t112 211t163 145.5t193 87.5t203 27.5q260 0 446 -94l-55 -182q-72 43 -178 71.5t-211 28.5q-102 0 -190 -31.5t-161.5 -97t-116 -179t-42.5 -263.5q0 -105 30 -192t81 -146.5t119.5 -100.5t143.5 -60t154 -19q102 0 212 36t186 84l49 -184 q-88 -50 -212.5 -81t-264.5 -31q-138 0 -264 47.5t-224 134t-156.5 219.5t-58.5 293zM561 -424l29 113q56 -27 108 -27q40 0 66.5 22.5t26.5 65.5q0 47 -34 73.5t-87 29.5l18 92q42 0 82 -11t75.5 -33.5t57 -63.5t21.5 -95q0 -95 -65 -148t-148 -53q-82 0 -150 35z" />
<glyph unicode="&#xc8;" horiz-adv-x="1163" d="M199 0v1397h802l-10 -172h-600v-420h545v-172h-545v-463h656l-11 -170h-837zM291 1710h209l164 -235h-125z" />
<glyph unicode="&#xc9;" horiz-adv-x="1163" d="M199 0v1397h802l-10 -172h-600v-420h545v-172h-545v-463h656l-11 -170h-837zM473 1475l162 235h211l-250 -235h-123z" />
<glyph unicode="&#xca;" horiz-adv-x="1163" d="M199 0v1397h802l-10 -172h-600v-420h545v-172h-545v-463h656l-11 -170h-837zM291 1485l254 241h131l233 -241l-123 -12l-180 145l-192 -145z" />
<glyph unicode="&#xcb;" horiz-adv-x="1163" d="M199 0v1397h802l-10 -172h-600v-420h545v-172h-545v-463h656l-11 -170h-837zM322 1573q0 41 27.5 68.5t68.5 27.5t69.5 -27.5t28.5 -68.5q0 -42 -28.5 -72.5t-69.5 -30.5t-68.5 30.5t-27.5 72.5zM657 1573q0 41 28.5 68.5t70.5 27.5q41 0 69.5 -27.5t28.5 -68.5 q0 -42 -28.5 -72.5t-69.5 -30.5t-70 30.5t-29 72.5z" />
<glyph unicode="&#xcc;" horiz-adv-x="589" d="M6 1710h209l164 -235h-125zM199 0v1397h192v-1397h-192z" />
<glyph unicode="&#xcd;" horiz-adv-x="589" d="M199 0v1397h192v-1397h-192zM211 1475l162 235h211l-250 -235h-123z" />
<glyph unicode="&#xce;" horiz-adv-x="589" d="M-14 1485l254 241h131l233 -241l-123 -12l-180 145l-192 -145zM199 0v1397h192v-1397h-192z" />
<glyph unicode="&#xcf;" horiz-adv-x="589" d="M29 1573q0 41 27.5 68.5t68.5 27.5t69.5 -27.5t28.5 -68.5q0 -42 -28.5 -72.5t-69.5 -30.5t-68.5 30.5t-27.5 72.5zM199 0v1397h192v-1397h-192zM365 1573q0 41 28.5 68.5t69.5 27.5t69.5 -27.5t28.5 -68.5q0 -42 -28.5 -72.5t-69.5 -30.5t-69.5 30.5t-28.5 72.5z" />
<glyph unicode="&#xd0;" horiz-adv-x="1495" d="M59 625v184h140v588h100q256 14 371 14q217 0 382.5 -80t259 -236.5t93.5 -369.5q0 -179 -53 -321t-148 -232.5t-223.5 -138t-282.5 -47.5q-49 0 -147 3.5t-171 6.5l-73 4h-108v625h-140zM389 164q165 -12 293 -12q234 0 377 150t143 400q0 136 -43.5 242t-118.5 171 t-172 98.5t-209 33.5q-133 0 -270 -10v-428h336v-184h-336v-461z" />
<glyph unicode="&#xd1;" horiz-adv-x="1603" d="M199 0v1397h211l761 -1010q36 -52 52 -94h8q-4 70 -4 96v1008h178v-1395l-162 -22l-809 1077q-38 51 -51 92h-10q4 -54 4 -88v-1061h-178zM508 1532q33 104 82 152.5t117 48.5q36 0 96 -30.5t116.5 -61.5t86.5 -31q34 0 56 29t46 94l82 -29q-46 -211 -189 -211 q-45 0 -108.5 31.5t-118.5 62.5t-80 31q-63 0 -114 -119z" />
<glyph unicode="&#xd2;" horiz-adv-x="1613" d="M92 670q0 141 39 263t107.5 210.5t161 151.5t201 94.5t226.5 31.5q137 0 263 -49t222.5 -136.5t154 -220.5t57.5 -290q0 -175 -61.5 -318.5t-165 -235.5t-237 -141.5t-280.5 -49.5q-131 0 -254 47.5t-220 133.5t-155.5 219t-58.5 290zM297 698q0 -130 38.5 -234.5 t106.5 -172t160 -103.5t199 -36q225 0 371.5 156.5t146.5 396.5q0 133 -41.5 239t-112 171.5t-159.5 99.5t-189 34q-103 0 -196 -36.5t-165.5 -104t-115.5 -174t-43 -236.5zM516 1710h209l164 -235h-125z" />
<glyph unicode="&#xd3;" horiz-adv-x="1613" d="M92 670q0 141 39 263t107.5 210.5t161 151.5t201 94.5t226.5 31.5q137 0 263 -49t222.5 -136.5t154 -220.5t57.5 -290q0 -175 -61.5 -318.5t-165 -235.5t-237 -141.5t-280.5 -49.5q-131 0 -254 47.5t-220 133.5t-155.5 219t-58.5 290zM297 698q0 -130 38.5 -234.5 t106.5 -172t160 -103.5t199 -36q225 0 371.5 156.5t146.5 396.5q0 133 -41.5 239t-112 171.5t-159.5 99.5t-189 34q-103 0 -196 -36.5t-165.5 -104t-115.5 -174t-43 -236.5zM739 1475l162 235h211l-250 -235h-123z" />
<glyph unicode="&#xd4;" horiz-adv-x="1613" d="M92 670q0 141 39 263t107.5 210.5t161 151.5t201 94.5t226.5 31.5q137 0 263 -49t222.5 -136.5t154 -220.5t57.5 -290q0 -175 -61.5 -318.5t-165 -235.5t-237 -141.5t-280.5 -49.5q-131 0 -254 47.5t-220 133.5t-155.5 219t-58.5 290zM297 698q0 -130 38.5 -234.5 t106.5 -172t160 -103.5t199 -36q225 0 371.5 156.5t146.5 396.5q0 133 -41.5 239t-112 171.5t-159.5 99.5t-189 34q-103 0 -196 -36.5t-165.5 -104t-115.5 -174t-43 -236.5zM496 1485l254 241h131l233 -241l-123 -12l-180 145l-193 -145z" />
<glyph unicode="&#xd5;" horiz-adv-x="1613" d="M92 670q0 141 39 263t107.5 210.5t161 151.5t201 94.5t226.5 31.5q137 0 263 -49t222.5 -136.5t154 -220.5t57.5 -290q0 -175 -61.5 -318.5t-165 -235.5t-237 -141.5t-280.5 -49.5q-131 0 -254 47.5t-220 133.5t-155.5 219t-58.5 290zM297 698q0 -130 38.5 -234.5 t106.5 -172t160 -103.5t199 -36q225 0 371.5 156.5t146.5 396.5q0 133 -41.5 239t-112 171.5t-159.5 99.5t-189 34q-103 0 -196 -36.5t-165.5 -104t-115.5 -174t-43 -236.5zM461 1532q33 105 81.5 153t116.5 48q36 0 96 -30.5t116.5 -61.5t86.5 -31q34 0 56.5 29.5 t46.5 93.5l82 -29q-46 -211 -189 -211q-45 0 -108.5 31.5t-118.5 62.5t-80 31q-64 0 -115 -119z" />
<glyph unicode="&#xd6;" horiz-adv-x="1613" d="M92 670q0 141 39 263t107.5 210.5t161 151.5t201 94.5t226.5 31.5q137 0 263 -49t222.5 -136.5t154 -220.5t57.5 -290q0 -175 -61.5 -318.5t-165 -235.5t-237 -141.5t-280.5 -49.5q-131 0 -254 47.5t-220 133.5t-155.5 219t-58.5 290zM297 698q0 -130 38.5 -234.5 t106.5 -172t160 -103.5t199 -36q225 0 371.5 156.5t146.5 396.5q0 133 -41.5 239t-112 171.5t-159.5 99.5t-189 34q-103 0 -196 -36.5t-165.5 -104t-115.5 -174t-43 -236.5zM532 1573q0 41 28 68.5t69 27.5t69.5 -27.5t28.5 -68.5q0 -42 -28.5 -72.5t-69.5 -30.5t-69 30.5 t-28 72.5zM868 1573q0 41 28.5 68.5t70.5 27.5q41 0 69.5 -27.5t28.5 -68.5q0 -42 -28.5 -72.5t-69.5 -30.5t-70 30.5t-29 72.5z" />
<glyph unicode="&#xd7;" d="M98 184l314 305l-314 306l109 106l311 -309l309 309l109 -104l-313 -308l315 -303l-109 -106l-311 309l-309 -309z" />
<glyph unicode="&#xd8;" horiz-adv-x="1613" d="M92 670q0 141 39 263t107.5 210.5t161 151.5t201 94.5t226.5 31.5q212 0 385 -110l129 170h105l-166 -219q114 -92 179 -229.5t65 -307.5q0 -175 -61.5 -318.5t-165 -235.5t-237 -141.5t-280.5 -49.5q-210 0 -383 110l-135 -178h-106l172 229q-110 93 -173 228t-63 301z M297 698q0 -259 145 -407l660 874q-125 84 -285 84q-103 0 -196 -36.5t-165.5 -104t-115.5 -174t-43 -236.5zM508 238q124 -86 293 -86q225 0 371.5 156.5t146.5 396.5q0 258 -152 407z" />
<glyph unicode="&#xd9;" horiz-adv-x="1472" d="M180 469v928h193v-903q0 -151 93 -242.5t273 -91.5q174 0 265.5 96t91.5 240v901h196v-928q0 -210 -154.5 -349.5t-398.5 -139.5q-262 0 -410.5 123t-148.5 366zM481 1710h209l164 -235h-125z" />
<glyph unicode="&#xda;" horiz-adv-x="1472" d="M180 469v928h193v-903q0 -151 93 -242.5t273 -91.5q174 0 265.5 96t91.5 240v901h196v-928q0 -210 -154.5 -349.5t-398.5 -139.5q-262 0 -410.5 123t-148.5 366zM653 1475l162 235h211l-250 -235h-123z" />
<glyph unicode="&#xdb;" horiz-adv-x="1472" d="M180 469v928h193v-903q0 -151 93 -242.5t273 -91.5q174 0 265.5 96t91.5 240v901h196v-928q0 -210 -154.5 -349.5t-398.5 -139.5q-262 0 -410.5 123t-148.5 366zM432 1485l254 241h131l234 -241l-123 -12l-180 145l-193 -145z" />
<glyph unicode="&#xdc;" horiz-adv-x="1472" d="M180 469v928h193v-903q0 -151 93 -242.5t273 -91.5q174 0 265.5 96t91.5 240v901h196v-928q0 -210 -154.5 -349.5t-398.5 -139.5q-262 0 -410.5 123t-148.5 366zM473 1573q0 41 27.5 68.5t68.5 27.5q42 0 70.5 -27.5t28.5 -68.5q0 -42 -29 -72.5t-70 -30.5t-68.5 30.5 t-27.5 72.5zM809 1573q0 41 28.5 68.5t69.5 27.5q42 0 70.5 -27.5t28.5 -68.5q0 -42 -29 -72.5t-70 -30.5t-69.5 30.5t-28.5 72.5z" />
<glyph unicode="&#xdd;" horiz-adv-x="1241" d="M41 1389l211 16l356 -635q18 -37 25 -70h16q7 39 25 72l325 625h203l-465 -877v-520h-192v520zM547 1475l162 235h211l-250 -235h-123z" />
<glyph unicode="&#xde;" horiz-adv-x="1155" d="M199 0v1397h190v-262q148 8 215 8q221 0 342 -110t121 -296q0 -114 -43.5 -204t-116 -143.5t-158.5 -81t-178 -27.5q-59 0 -96 4l-22 174q43 -6 90 -6q49 0 94 8t89 27.5t76 49t52 76t20 105.5q0 122 -81 190t-220 68q-49 0 -184 -6v-971h-190z" />
<glyph unicode="&#xdf;" horiz-adv-x="1099" d="M164 0v1018q0 112 36 200.5t98 143.5t141 84t169 29q138 0 228 -75.5t90 -215.5q0 -48 -23 -100t-55 -97t-64.5 -88t-55.5 -87t-23 -79q0 -41 33 -84t79.5 -82t93.5 -82.5t80 -102.5t33 -124q0 -112 -96.5 -195t-227.5 -83q-139 0 -239 45l24 161q117 -51 211 -51 q67 0 105.5 27.5t38.5 77.5q0 36 -24 72t-59.5 65t-77.5 66t-77.5 73t-59.5 86.5t-24 106.5q0 54 22 110t53 101.5t62.5 88t53.5 85t22 77.5q0 71 -40.5 109.5t-115.5 38.5q-48 0 -86.5 -17t-71.5 -54.5t-51 -108t-18 -168.5v-971h-184z" />
<glyph unicode="&#xe0;" horiz-adv-x="933" d="M92 217q0 79 41 142t109 102l360 31v122q0 80 -37.5 115t-115.5 35q-114 0 -244 -88l-51 131q88 69 170.5 94t177.5 25q276 0 276 -291q0 -15 -3 -191t-3 -188q0 -24 21 -96l43 -135l-170 -45l-35 100q-99 -58 -167.5 -79t-131.5 -21q-114 0 -177 68.5t-63 168.5z M199 1421h204l170 -403h-124zM274 254q0 -129 125 -129q78 0 199 68l2 176l-303 -31q-8 -12 -15.5 -39.5t-7.5 -44.5z" />
<glyph unicode="&#xe1;" horiz-adv-x="933" d="M92 217q0 79 41 142t109 102l360 31v122q0 80 -37.5 115t-115.5 35q-114 0 -244 -88l-51 131q88 69 170.5 94t177.5 25q276 0 276 -291q0 -15 -3 -191t-3 -188q0 -24 21 -96l43 -135l-170 -45l-35 100q-99 -58 -167.5 -79t-131.5 -21q-114 0 -177 68.5t-63 168.5z M274 254q0 -129 125 -129q78 0 199 68l2 176l-303 -31q-8 -12 -15.5 -39.5t-7.5 -44.5zM399 1018l170 403h205l-252 -403h-123z" />
<glyph unicode="&#xe2;" horiz-adv-x="933" d="M92 217q0 79 41 142t109 102l360 31v122q0 80 -37.5 115t-115.5 35q-114 0 -244 -88l-51 131q88 69 170.5 94t177.5 25q276 0 276 -291q0 -15 -3 -191t-3 -188q0 -24 21 -96l43 -135l-170 -45l-35 100q-99 -58 -167.5 -79t-131.5 -21q-114 0 -177 68.5t-63 168.5z M121 1028l274 393h144l276 -393l-143 -12l-207 268l-205 -268zM274 254q0 -129 125 -129q78 0 199 68l2 176l-303 -31q-8 -12 -15.5 -39.5t-7.5 -44.5z" />
<glyph unicode="&#xe3;" horiz-adv-x="933" d="M92 217q0 79 41 142t109 102l360 31v122q0 80 -37.5 115t-115.5 35q-114 0 -244 -88l-51 131q88 69 170.5 94t177.5 25q276 0 276 -291q0 -15 -3 -191t-3 -188q0 -24 21 -96l43 -135l-170 -45l-35 100q-99 -58 -167.5 -79t-131.5 -21q-114 0 -177 68.5t-63 168.5z M119 1135q35 114 84 166.5t119 52.5q37 0 97 -33t116 -66.5t83 -33.5q34 0 54.5 30.5t44.5 102.5l98 -33q-46 -229 -192 -229q-38 0 -87 21t-87 45.5t-77 45.5t-59 21q-34 0 -55.5 -30t-48.5 -97zM274 254q0 -129 125 -129q78 0 199 68l2 176l-303 -31q-8 -12 -15.5 -39.5 t-7.5 -44.5z" />
<glyph unicode="&#xe4;" horiz-adv-x="933" d="M92 217q0 79 41 142t109 102l360 31v122q0 80 -37.5 115t-115.5 35q-114 0 -244 -88l-51 131q88 69 170.5 94t177.5 25q276 0 276 -291q0 -15 -3 -191t-3 -188q0 -24 21 -96l43 -135l-170 -45l-35 100q-99 -58 -167.5 -79t-131.5 -21q-114 0 -177 68.5t-63 168.5z M201 1239q0 41 27.5 68.5t68.5 27.5t69.5 -27.5t28.5 -68.5q0 -42 -28.5 -72t-69.5 -30t-68.5 30t-27.5 72zM274 254q0 -129 125 -129q78 0 199 68l2 176l-303 -31q-8 -12 -15.5 -39.5t-7.5 -44.5zM537 1239q0 41 28.5 68.5t69.5 27.5t69.5 -27.5t28.5 -68.5 q0 -42 -28.5 -72t-69.5 -30t-69.5 30t-28.5 72z" />
<glyph unicode="&#xe5;" horiz-adv-x="933" d="M92 217q0 79 41 142t109 102l360 31v122q0 80 -37.5 115t-115.5 35q-114 0 -244 -88l-51 131q88 69 170.5 94t177.5 25q276 0 276 -291q0 -15 -3 -191t-3 -188q0 -24 21 -96l43 -135l-170 -45l-35 100q-99 -58 -167.5 -79t-131.5 -21q-114 0 -177 68.5t-63 168.5z M274 254q0 -129 125 -129q78 0 199 68l2 176l-303 -31q-8 -12 -15.5 -39.5t-7.5 -44.5zM281 1210q0 90 59 145.5t149 55.5q84 0 140.5 -52t56.5 -134q0 -92 -61.5 -145.5t-151.5 -53.5q-80 0 -136 51.5t-56 132.5zM387 1219q0 -45 27 -71t67 -26q45 0 69.5 27.5t24.5 71.5 q0 47 -26.5 71.5t-65.5 24.5q-42 0 -69 -25.5t-27 -72.5z" />
<glyph unicode="&#xe6;" horiz-adv-x="1476" d="M92 217q0 80 42 143t108 101l360 24v129q0 83 -38 116.5t-115 33.5q-114 0 -244 -88l-51 131q91 71 171.5 95t176.5 24q90 0 142 -36t81 -112q117 148 293 148q172 0 265 -96t93 -244q0 -70 -8 -148h-590q-2 -8 -2 -14q0 -121 76.5 -201t206.5 -80q133 0 252 111l73 -121 q-60 -72 -151 -112.5t-199 -40.5q-197 0 -317 135q-135 -77 -220.5 -106t-164.5 -29q-113 0 -176.5 68t-63.5 169zM274 254q0 -129 125 -129q92 0 246 90q-14 24 -28.5 69t-14.5 78l-305 -24q-23 -38 -23 -84zM791 565h401v41q0 77 -48 126.5t-132 49.5q-89 0 -151.5 -60 t-69.5 -157z" />
<glyph unicode="&#xe7;" horiz-adv-x="917" d="M92 453q0 147 63.5 256t166.5 163t229 54q168 0 285 -60l-52 -161q-43 25 -105 41t-120 16q-118 0 -195 -80t-77 -236q0 -132 74 -217.5t202 -85.5q71 0 136 31t106 74l76 -127q-132 -141 -344 -141q-205 0 -325 128.5t-120 344.5zM317 -424l29 113q56 -27 109 -27 q40 0 66 22.5t26 65.5q0 47 -34 73.5t-87 29.5l18 92q42 0 82 -11t75.5 -33.5t57 -63.5t21.5 -95q0 -95 -65 -148t-148 -53q-82 0 -150 35z" />
<glyph unicode="&#xe8;" horiz-adv-x="980" d="M92 442q0 117 38.5 212t101.5 153t137.5 88.5t152.5 30.5q172 0 265.5 -96t93.5 -244q0 -69 -9 -148h-587q-2 -8 -2 -14q0 -121 75 -201t205 -80q133 0 252 111l74 -121q-60 -72 -151 -112.5t-199 -40.5q-86 0 -164.5 29t-142.5 84t-102 145.5t-38 203.5zM229 1421h205 l170 -403h-125zM297 565h399v41q0 77 -48 126.5t-132 49.5q-93 0 -151.5 -61t-67.5 -156z" />
<glyph unicode="&#xe9;" horiz-adv-x="980" d="M92 442q0 117 38.5 212t101.5 153t137.5 88.5t152.5 30.5q172 0 265.5 -96t93.5 -244q0 -69 -9 -148h-587q-2 -8 -2 -14q0 -121 75 -201t205 -80q133 0 252 111l74 -121q-60 -72 -151 -112.5t-199 -40.5q-86 0 -164.5 29t-142.5 84t-102 145.5t-38 203.5zM297 565h399v41 q0 77 -48 126.5t-132 49.5q-93 0 -151.5 -61t-67.5 -156zM434 1018l170 403h205l-252 -403h-123z" />
<glyph unicode="&#xea;" horiz-adv-x="980" d="M92 442q0 117 38.5 212t101.5 153t137.5 88.5t152.5 30.5q172 0 265.5 -96t93.5 -244q0 -69 -9 -148h-587q-2 -8 -2 -14q0 -121 75 -201t205 -80q133 0 252 111l74 -121q-60 -72 -151 -112.5t-199 -40.5q-86 0 -164.5 29t-142.5 84t-102 145.5t-38 203.5zM170 1028 l274 393h144l276 -393l-143 -12l-207 268l-205 -268zM297 565h399v41q0 77 -48 126.5t-132 49.5q-93 0 -151.5 -61t-67.5 -156z" />
<glyph unicode="&#xeb;" horiz-adv-x="980" d="M92 442q0 117 38.5 212t101.5 153t137.5 88.5t152.5 30.5q172 0 265.5 -96t93.5 -244q0 -69 -9 -148h-587q-2 -8 -2 -14q0 -121 75 -201t205 -80q133 0 252 111l74 -121q-60 -72 -151 -112.5t-199 -40.5q-86 0 -164.5 29t-142.5 84t-102 145.5t-38 203.5zM252 1239 q0 41 27.5 68.5t68.5 27.5t69.5 -27.5t28.5 -68.5q0 -42 -28.5 -72t-69.5 -30t-68.5 30t-27.5 72zM297 565h399v41q0 77 -48 126.5t-132 49.5q-93 0 -151.5 -61t-67.5 -156zM588 1239q0 41 28.5 68.5t69.5 27.5t69.5 -27.5t28.5 -68.5q0 -42 -28.5 -72t-69.5 -30t-69.5 30 t-28.5 72z" />
<glyph unicode="&#xec;" horiz-adv-x="528" d="M-18 1421h204l170 -403h-125zM172 0v895l184 14v-909h-184z" />
<glyph unicode="&#xed;" horiz-adv-x="528" d="M172 0v895l184 14v-909h-184zM178 1018l170 403h205l-252 -403h-123z" />
<glyph unicode="&#xee;" horiz-adv-x="528" d="M-84 1028l274 393h144l276 -393l-143 -12l-207 268l-205 -268zM172 0v895l184 14v-909h-184z" />
<glyph unicode="&#xef;" horiz-adv-x="528" d="M-2 1239q0 41 27.5 68.5t68.5 27.5q42 0 70.5 -27.5t28.5 -68.5q0 -42 -29 -72t-70 -30t-68.5 30t-27.5 72zM172 0v895l184 14v-909h-184zM334 1239q0 41 28.5 68.5t69.5 27.5t69.5 -27.5t28.5 -68.5q0 -42 -28.5 -72t-69.5 -30t-69.5 30t-28.5 72z" />
<glyph unicode="&#xf0;" horiz-adv-x="1052" d="M82 467q0 206 117.5 332.5t298.5 126.5q171 0 276 -82l6 2q-21 305 -231 389l-227 -205l-74 68l184 166q-40 4 -65 4q-122 0 -220 -37v174q44 11 117 20t119 9q116 0 207 -29l112 100l76 -63l-88 -80q285 -160 285 -735q0 -324 -120 -485.5t-337 -161.5 q-207 0 -321.5 124t-114.5 363zM274 459q0 -174 67 -248t187 -74q121 0 187.5 86t66.5 246q0 156 -71 229.5t-193 73.5q-107 0 -175.5 -80t-68.5 -233z" />
<glyph unicode="&#xf1;" horiz-adv-x="1110" d="M172 0v895l178 16v-102q122 117 277 117q317 0 317 -346v-580h-184v553q0 213 -187 213q-119 0 -217 -78v-688h-184zM227 1135q35 114 84 166.5t119 52.5q37 0 97.5 -33t116.5 -66.5t83 -33.5q34 0 53.5 30t44.5 103l99 -33q-46 -229 -193 -229q-38 0 -86.5 21t-87 45.5 t-77 45.5t-58.5 21q-34 0 -56 -30t-49 -97z" />
<glyph unicode="&#xf2;" horiz-adv-x="1122" d="M92 430q0 150 67 264.5t177 173t242 58.5q191 0 321.5 -124t130.5 -331q0 -113 -39 -207t-106 -155.5t-155 -95t-187 -33.5q-192 0 -321.5 126t-129.5 324zM268 1421h205l170 -403h-125zM287 455q0 -139 78 -226.5t194 -87.5q125 0 201 89t76 227q0 143 -79.5 227 t-193.5 84q-119 0 -197.5 -83.5t-78.5 -229.5z" />
<glyph unicode="&#xf3;" horiz-adv-x="1122" d="M92 430q0 150 67 264.5t177 173t242 58.5q191 0 321.5 -124t130.5 -331q0 -113 -39 -207t-106 -155.5t-155 -95t-187 -33.5q-192 0 -321.5 126t-129.5 324zM287 455q0 -139 78 -226.5t194 -87.5q125 0 201 89t76 227q0 143 -79.5 227t-193.5 84q-119 0 -197.5 -83.5 t-78.5 -229.5zM502 1018l170 403h205l-252 -403h-123z" />
<glyph unicode="&#xf4;" horiz-adv-x="1122" d="M92 430q0 150 67 264.5t177 173t242 58.5q191 0 321.5 -124t130.5 -331q0 -113 -39 -207t-106 -155.5t-155 -95t-187 -33.5q-192 0 -321.5 126t-129.5 324zM219 1028l275 393h143l276 -393l-143 -12l-207 268l-205 -268zM287 455q0 -139 78 -226.5t194 -87.5 q125 0 201 89t76 227q0 143 -79.5 227t-193.5 84q-119 0 -197.5 -83.5t-78.5 -229.5z" />
<glyph unicode="&#xf5;" horiz-adv-x="1122" d="M92 430q0 150 67 264.5t177 173t242 58.5q191 0 321.5 -124t130.5 -331q0 -113 -39 -207t-106 -155.5t-155 -95t-187 -33.5q-192 0 -321.5 126t-129.5 324zM217 1135q35 114 84 166.5t119 52.5q37 0 97.5 -33t116.5 -66.5t83 -33.5q34 0 53.5 30t44.5 103l98 -33 q-46 -229 -192 -229q-38 0 -86.5 21t-87 45.5t-77 45.5t-58.5 21q-34 0 -56 -30t-49 -97zM287 455q0 -139 78 -226.5t194 -87.5q125 0 201 89t76 227q0 143 -79.5 227t-193.5 84q-119 0 -197.5 -83.5t-78.5 -229.5z" />
<glyph unicode="&#xf6;" horiz-adv-x="1122" d="M92 430q0 150 67 264.5t177 173t242 58.5q191 0 321.5 -124t130.5 -331q0 -113 -39 -207t-106 -155.5t-155 -95t-187 -33.5q-192 0 -321.5 126t-129.5 324zM287 455q0 -139 78 -226.5t194 -87.5q125 0 201 89t76 227q0 143 -79.5 227t-193.5 84q-119 0 -197.5 -83.5 t-78.5 -229.5zM295 1239q0 41 27.5 68.5t68.5 27.5t69.5 -27.5t28.5 -68.5q0 -42 -28.5 -72t-69.5 -30t-68.5 30t-27.5 72zM631 1239q0 41 28.5 68.5t69.5 27.5t69.5 -27.5t28.5 -68.5q0 -42 -28.5 -72t-69.5 -30t-69.5 30t-28.5 72z" />
<glyph unicode="&#xf7;" d="M117 414v123h788v-123h-788zM393 125q0 51 34 86t83 35q50 0 84.5 -35t34.5 -86t-35 -87t-84 -36t-83 36t-34 87zM393 819q0 51 34 86t83 35q50 0 85.5 -35t35.5 -86t-35.5 -87t-85.5 -36q-49 0 -83 36t-34 87z" />
<glyph unicode="&#xf8;" horiz-adv-x="1122" d="M92 430q0 150 67 264.5t177 173t242 58.5q119 0 221 -54l131 197h86l-156 -233q79 -61 124.5 -154t45.5 -211q0 -113 -39 -207t-106 -155.5t-155 -95t-187 -33.5q-121 0 -221 53l-127 -191h-89l154 230q-79 60 -123.5 152t-44.5 206zM287 455q0 -140 78 -228l335 502 q-64 39 -137 39q-119 0 -197.5 -83.5t-78.5 -229.5zM420 180q59 -39 139 -39q125 0 201 89t76 227q0 137 -78 225z" />
<glyph unicode="&#xf9;" horiz-adv-x="1097" d="M168 315v578l184 18v-577q0 -107 46 -148t130 -41q120 0 220 107v641l184 18v-718q0 -94 18 -189l-180 -18l-12 110q-79 -67 -147 -91.5t-146 -24.5q-297 0 -297 335zM252 1421h205l170 -403h-125z" />
<glyph unicode="&#xfa;" horiz-adv-x="1097" d="M168 315v578l184 18v-577q0 -107 46 -148t130 -41q120 0 220 107v641l184 18v-718q0 -94 18 -189l-180 -18l-12 110q-79 -67 -147 -91.5t-146 -24.5q-297 0 -297 335zM475 1018l170 403h205l-252 -403h-123z" />
<glyph unicode="&#xfb;" horiz-adv-x="1097" d="M168 315v578l184 18v-577q0 -107 46 -148t130 -41q120 0 220 107v641l184 18v-718q0 -94 18 -189l-180 -18l-12 110q-79 -67 -147 -91.5t-146 -24.5q-297 0 -297 335zM203 1028l274 393h144l276 -393l-143 -12l-207 268l-205 -268z" />
<glyph unicode="&#xfc;" horiz-adv-x="1097" d="M168 315v578l184 18v-577q0 -107 46 -148t130 -41q120 0 220 107v641l184 18v-718q0 -94 18 -189l-180 -18l-12 110q-79 -67 -147 -91.5t-146 -24.5q-297 0 -297 335zM283 1239q0 41 27.5 68.5t68.5 27.5t69.5 -27.5t28.5 -68.5q0 -42 -28.5 -72t-69.5 -30t-68.5 30 t-27.5 72zM618 1239q0 41 28.5 68.5t70.5 27.5q41 0 69.5 -27.5t28.5 -68.5q0 -42 -28.5 -72t-69.5 -30t-70 30t-29 72z" />
<glyph unicode="&#xfd;" horiz-adv-x="989" d="M10 -412q121 47 217.5 143.5t175.5 268.5h-32l-322 891l195 20l223 -663q21 -66 25 -88h10q5 31 26 88l238 655h201l-328 -821q-204 -515 -516 -633zM440 1018l170 403h205l-252 -403h-123z" />
<glyph unicode="&#xfe;" horiz-adv-x="1112" d="M172 -526v1968l184 20v-647q63 60 128 85.5t145 25.5q175 0 282 -120t107 -325q0 -118 -41 -216t-107 -158.5t-145.5 -93.5t-161.5 -33q-129 0 -207 45v-551h-184zM356 193q66 -52 170 -52q137 0 216 86t79 248q0 146 -73.5 220.5t-192.5 74.5q-61 0 -114 -30.5 t-85 -75.5v-471z" />
<glyph unicode="&#xff;" horiz-adv-x="989" d="M10 -412q121 47 217.5 143.5t175.5 268.5h-32l-322 891l195 20l223 -663q21 -66 25 -88h10q5 31 26 88l238 655h201l-328 -821q-204 -515 -516 -633zM244 1239q0 41 27.5 68.5t68.5 27.5t69.5 -27.5t28.5 -68.5q0 -42 -28.5 -72t-69.5 -30t-68.5 30t-27.5 72zM580 1239 q0 41 28.5 68.5t69.5 27.5t69.5 -27.5t28.5 -68.5q0 -42 -28.5 -72t-69.5 -30t-69.5 30t-28.5 72z" />
<glyph unicode="&#x152;" horiz-adv-x="2215" d="M92 672q0 175 57 319t154.5 236.5t223.5 143t266 50.5q159 0 278 -58t189 -165h4v199h790l-10 -172h-600v-420h545v-172h-545v-463h655l-10 -170h-825v223h-4q-71 -112 -204 -177.5t-311 -65.5q-126 0 -243 48t-208.5 134.5t-146.5 219t-55 290.5zM297 700 q0 -258 132 -403t347 -145q219 0 351.5 150.5t132.5 404.5q0 137 -37 242.5t-102.5 169.5t-149.5 96t-183 32q-97 0 -183.5 -34.5t-156 -100t-110.5 -172t-41 -240.5z" />
<glyph unicode="&#x153;" horiz-adv-x="1693" d="M92 430q0 227 134.5 361.5t340.5 134.5q114 0 201 -47.5t139 -133.5q60 89 146.5 135t181.5 46q172 0 265 -96t93 -244q0 -98 -8 -148h-590q-2 -8 -2 -14q0 -121 76.5 -201t206.5 -80q133 0 252 111l74 -121q-59 -72 -150.5 -112.5t-200.5 -40.5q-237 0 -354 186 q-112 -186 -354 -186q-90 0 -170.5 29.5t-143.5 84.5t-100 142t-37 194zM285 453q0 -143 78.5 -227.5t193.5 -84.5q123 0 190.5 83t67.5 231q0 158 -71.5 235.5t-186.5 77.5q-114 0 -193 -81t-79 -234zM1008 565h401v41q0 77 -48 126.5t-132 49.5q-89 0 -150 -58.5 t-71 -158.5z" />
<glyph unicode="&#x178;" horiz-adv-x="1241" d="M41 1389l211 16l356 -635q18 -37 25 -70h16q7 39 25 72l325 625h203l-465 -877v-520h-192v520zM375 1573q0 41 27.5 68.5t68.5 27.5t69.5 -27.5t28.5 -68.5q0 -42 -28.5 -72.5t-69.5 -30.5t-68.5 30.5t-27.5 72.5zM711 1573q0 41 28.5 68.5t69.5 27.5t69.5 -27.5 t28.5 -68.5q0 -42 -28.5 -72.5t-69.5 -30.5t-69.5 30.5t-28.5 72.5z" />
<glyph unicode="&#x2c6;" d="M147 1028l275 393h143l277 -393l-144 -12l-206 268l-205 -268z" />
<glyph unicode="&#x2dc;" d="M156 1135q35 115 83.5 167t118.5 52q37 0 97.5 -33t116.5 -66.5t83 -33.5q34 0 54.5 30.5t44.5 102.5l98 -33q-46 -229 -193 -229q-38 0 -86.5 21t-87 45.5t-77 45.5t-58.5 21q-34 0 -55.5 -30t-48.5 -97z" />
<glyph unicode="&#x2000;" horiz-adv-x="866" />
<glyph unicode="&#x2001;" horiz-adv-x="1733" />
<glyph unicode="&#x2002;" horiz-adv-x="866" />
<glyph unicode="&#x2003;" horiz-adv-x="1733" />
<glyph unicode="&#x2004;" horiz-adv-x="577" />
<glyph unicode="&#x2005;" horiz-adv-x="433" />
<glyph unicode="&#x2006;" horiz-adv-x="288" />
<glyph unicode="&#x2007;" horiz-adv-x="288" />
<glyph unicode="&#x2008;" horiz-adv-x="216" />
<glyph unicode="&#x2009;" horiz-adv-x="346" />
<glyph unicode="&#x200a;" horiz-adv-x="96" />
<glyph unicode="&#x2010;" horiz-adv-x="653" d="M76 446v144h504v-144h-504z" />
<glyph unicode="&#x2011;" horiz-adv-x="653" d="M76 446v144h504v-144h-504z" />
<glyph unicode="&#x2012;" horiz-adv-x="653" d="M76 446v144h504v-144h-504z" />
<glyph unicode="&#x2013;" d="M68 446v144h888v-144h-888z" />
<glyph unicode="&#x2014;" horiz-adv-x="2048" d="M68 446v144h1912v-144h-1912z" />
<glyph unicode="&#x2018;" horiz-adv-x="440" d="M55 1010q40 136 88 228.5t164 248.5l135 -21q-84 -149 -122 -247.5t-60 -208.5h-205z" />
<glyph unicode="&#x2019;" horiz-adv-x="440" d="M29 1018q84 149 122 248t60 209h205q-41 -137 -88.5 -229.5t-163.5 -248.5z" />
<glyph unicode="&#x201a;" horiz-adv-x="440" d="M29 -207q84 149 122 248t60 209h205q-40 -136 -88 -228.5t-164 -248.5z" />
<glyph unicode="&#x201c;" horiz-adv-x="790" d="M55 1010q40 136 88 228.5t164 248.5l135 -21q-84 -149 -122 -247.5t-60 -208.5h-205zM403 1010q40 136 88 228.5t164 248.5l136 -21q-85 -150 -123 -248.5t-60 -207.5h-205z" />
<glyph unicode="&#x201d;" horiz-adv-x="790" d="M29 1018q84 149 122 248t60 209h205q-41 -137 -88.5 -229.5t-163.5 -248.5zM377 1018q84 149 122 248t60 209h205q-41 -137 -88.5 -229.5t-163.5 -248.5z" />
<glyph unicode="&#x201e;" horiz-adv-x="786" d="M33 -207q84 149 122 248t60 209h205q-43 -139 -90 -231t-162 -246zM381 -207q84 149 122 248t60 209h205q-40 -136 -88 -228.5t-164 -248.5z" />
<glyph unicode="&#x2022;" horiz-adv-x="710" d="M98 461q0 106 76 181t182 75t181 -75t75 -181t-75 -181t-181 -75t-182 75t-76 181z" />
<glyph unicode="&#x2026;" horiz-adv-x="1259" d="M106 94q0 47 34 81t81 34t82 -34t35 -81t-34.5 -80.5t-82.5 -33.5q-47 0 -81 33.5t-34 80.5zM530 94q0 47 34 81t81 34t82 -34t35 -81t-34.5 -80.5t-82.5 -33.5q-47 0 -81 33.5t-34 80.5zM954 94q0 47 34 81t81 34t82 -34t35 -81t-34.5 -80.5t-82.5 -33.5q-47 0 -81 33.5 t-34 80.5z" />
<glyph unicode="&#x202f;" horiz-adv-x="346" />
<glyph unicode="&#x2039;" horiz-adv-x="571" d="M51 438v54l328 387l141 -50l-280 -358l280 -416l-141 -49z" />
<glyph unicode="&#x203a;" horiz-adv-x="571" d="M51 55l281 359l-281 415l142 50l327 -433v-53l-327 -387z" />
<glyph unicode="&#x205f;" horiz-adv-x="433" />
<glyph unicode="&#x20ac;" horiz-adv-x="1042" d="M63 485l31 127h82v66q0 43 4 117h-117l31 127h96q15 111 48 198t75.5 142.5t97 92t110.5 51.5t118 15q76 0 157 -13.5t134 -39.5l-31 -162q-116 58 -242 58q-130 0 -198.5 -81.5t-87.5 -260.5h415l-28 -127h-398q-4 -70 -4 -115v-68h441l-29 -127h-401q21 -190 88 -266 t190 -76q134 0 268 80l31 -164q-119 -79 -307 -79q-94 0 -168 27t-133.5 85.5t-98 157t-53.5 235.5h-121z" />
<glyph unicode="&#x2122;" horiz-adv-x="2572" d="M102 1217h856l-6 -156h-336v-893h-172v893h-335zM1147 168l86 1049h176l301 -748q19 -45 27 -90h10q11 48 29 90l340 748h172l71 -1049l-159 -6l-41 700q-5 50 -5 84h-10q-10 -55 -22 -76l-322 -702h-137l-274 690q-18 43 -25 88h-10q0 -48 -4 -88l-54 -696z" />
<glyph unicode="&#x25fc;" horiz-adv-x="911" d="M0 0v911h911v-911h-911z" />
<glyph unicode="&#xfb01;" horiz-adv-x="1193" d="M57 737v158h164v96q0 121 31 216t85 152t121 86.5t144 29.5q36 0 107 -9l-19 -172q-32 4 -74 4q-210 0 -210 -243v-160h458l162 14v-909h-184v737h-436v-737h-185v737h-164zM831 1249q0 41 29 70t70 29t69.5 -29t28.5 -70t-28.5 -70.5t-69.5 -29.5t-70 29.5t-29 70.5z " />
<glyph unicode="&#xfb02;" horiz-adv-x="1198" d="M57 737v158h164v96q0 121 34.5 213.5t94.5 148t136.5 83.5t166.5 28q133 0 240 -28l133 26v-1462h-184v1268q-80 26 -172 26q-133 0 -198.5 -63t-65.5 -199v-137h235v-158h-235v-737h-185v737h-164z" />
</font>
</defs>
</svg>
